<?xml version="1.0" encoding="UTF-8"?>
<svg width="24px" height="24px" viewBox="0 0 24 24" version="1.1" xmlns="http://www.w3.org/2000/svg" xmlns:xlink="http://www.w3.org/1999/xlink">
    <!-- Generator: Sketch 58 (84663) - https://sketch.com -->
    <title>Icon / 24px / bell-regular</title>
    <desc>Created with Sketch.</desc>
    <g id="Icon-/-24px-/-bell-regular" stroke="none" stroke-width="1" fill="none" fill-rule="evenodd">
        <path d="M20.4136719,16.1519531 C19.6589844,15.3410156 18.246875,14.1210938 18.246875,10.125 C18.246875,7.08984373 16.11875,4.66015621 13.2492188,4.06406246 L13.2492188,3.24999996 C13.2492188,2.55976558 12.6898438,1.99999995 12,1.99999995 C11.3101562,1.99999995 10.7507812,2.55976558 10.7507812,3.24999996 L10.7507812,4.06406246 C7.88124998,4.66015621 5.75312497,7.08984373 5.75312497,10.125 C5.75312497,14.1210938 4.34101559,15.3410156 3.58632808,16.1519531 C3.35195308,16.4039063 3.24804683,16.7050781 3.24997295,16.9999999 C3.25429683,17.640625 3.75703121,18.25 4.50390621,18.25 L19.4960938,18.25 C20.2429688,18.25 20.7460938,17.640625 20.7500271,16.9999999 C20.7519532,16.7050781 20.6480469,16.4035156 20.4136719,16.1519531 L20.4136719,16.1519531 Z M5.88789059,16.375 C6.71679685,15.2824219 7.62304685,13.4714844 7.62734373,10.1476562 C7.62734373,10.1398437 7.62499998,10.1328125 7.62499998,10.125 C7.62499998,7.70859373 9.58359374,5.74999997 12,5.74999997 C14.4164063,5.74999997 16.375,7.70859373 16.375,10.125 C16.375,10.1328125 16.3726563,10.1398437 16.3726563,10.1476562 C16.3769531,13.471875 17.2832032,15.2828125 18.1121094,16.375 L5.88789059,16.375 Z M12,22 C13.3796875,22 14.4988281,20.8808594 14.4988281,19.5 L9.50117186,19.5 C9.50117186,20.8808594 10.6203125,22 12,22 Z" id="bell-regular" fill="#5C5C5C"></path>
    </g>
</svg>