<?xml version="1.0" encoding="UTF-8"?>
<svg width="24px" height="24px" viewBox="0 0 24 24" version="1.1" xmlns="http://www.w3.org/2000/svg" xmlns:xlink="http://www.w3.org/1999/xlink">
    <!-- Generator: Sketch 58 (84663) - https://sketch.com -->
    <title>Icon / 24px / browser-online</title>
    <desc>Created with Sketch.</desc>
    <g id="Icon-/-24px-/-browser-online" stroke="none" stroke-width="1" fill="none" fill-rule="evenodd">
        <g id="icon-/-24px-/-browser-warning">
            <rect id="Background" x="0" y="0" width="24" height="24"></rect>
            <path d="M20.125,3 C21.1108631,3 21.919572,3.7835277 21.9943564,4.77790504 L22,4.92857143 L22.001303,12.4001874 L21.9810606,12.3731962 C22.846744,13.521633 23.36,14.9505333 23.36,16.4988419 C23.36,20.2890978 20.2878058,23.3601853 16.4986566,23.3601853 C14.502946,23.3601853 12.7061212,22.5082554 11.4522962,21.1480246 L11.297,20.974 L11.3206889,21.0010889 L3.875,21 C2.8891369,21 2.080428,20.2164723 2.00564363,19.222095 L2,19.0714286 L2,4.92857143 C2,3.91454082 2.76176304,3.08272595 3.72851879,3.00580487 L3.875,3 L20.125,3 Z M16.4986566,10.9655004 C13.4407107,10.9655004 10.9653151,13.441809 10.9653151,16.4988419 C10.9653151,19.557922 13.4406001,22.0321833 16.4986566,22.0321833 C19.5577367,22.0321833 22.031998,19.556843 22.031998,16.4988419 C22.031998,13.4408684 19.5555787,10.9655004 16.4986566,10.9655004 Z M10.8986666,20.4646744 L10.9197204,20.4941857 L10.9353307,20.5158563 L10.8986666,20.4646744 L10.8986666,20.4646744 Z M10.7250557,20.2078872 L10.7252482,20.2081863 L10.7371676,20.226636 C10.7331204,20.2203934 10.7290831,20.2141438 10.7250557,20.2078872 Z M20.125,8.46428571 L3.875,8.46428571 L3.875,18.8303571 C3.875,18.9408482 3.94824219,19.0345982 4.04725477,19.062779 L4.109375,19.0714286 L10.135987,19.0719245 L10.1515405,19.1100215 C9.82011741,18.305179 9.63731313,17.4234067 9.63731313,16.4988419 C9.63731313,12.7107993 12.7095073,9.63749843 16.4986566,9.63749843 C17.8368878,9.63749843 19.0856917,10.0208383 20.1413144,10.6836182 L20.1254854,10.6737098 L20.125,8.46428571 Z M18.9528886,14.0798671 C19.0674975,13.972765 19.2525768,13.9734762 19.36626,14.0814272 L19.36626,14.0814272 L19.9152133,14.6026665 C20.0288966,14.7106175 20.0281658,14.8849452 19.9135813,14.9920473 L19.9135813,14.9920473 L15.7094942,18.9201329 C15.5948854,19.027235 15.409806,19.0265238 15.2961228,18.9185728 L15.2961228,18.9185728 L13.0847929,16.8188398 C12.9710853,16.7108658 12.9718404,16.5365381 13.0864493,16.429459 L13.0864493,16.429459 L13.6398603,15.9123955 C13.7544691,15.8053164 13.9395485,15.8060276 14.0532317,15.9139786 L14.0532317,15.9139786 L15.5097021,17.2969675 Z M20.9039711,11.238826 L20.9364793,11.2662546 C20.9256719,11.2570788 20.9148358,11.2479359 20.9039711,11.238826 L20.9039711,11.238826 Z M5.90625,4.92857143 L4.34375,4.92857143 C4.11458333,4.92857143 3.9224537,5.1 3.88258745,5.32433862 L3.875,5.41071429 L3.875,6.375 C3.875,6.61071429 4.04166667,6.80833333 4.25977366,6.84933862 L4.34375,6.85714286 L5.90625,6.85714286 C6.13541667,6.85714286 6.3275463,6.68571429 6.36741255,6.46137566 L6.375,6.375 L6.375,5.41071429 C6.375,5.14553571 6.1640625,4.92857143 5.90625,4.92857143 Z M19.65625,4.92857143 L8.71875,4.92857143 C8.48958333,4.92857143 8.2974537,5.1 8.25758745,5.32433862 L8.25,5.41071429 L8.25,6.375 C8.25,6.61071429 8.41666667,6.80833333 8.63477366,6.84933862 L8.71875,6.85714286 L19.65625,6.85714286 C19.8854167,6.85714286 20.0775463,6.68571429 20.1174126,6.46137566 L20.125,6.375 L20.125,5.41071429 C20.125,5.14553571 19.9140625,4.92857143 19.65625,4.92857143 Z" id="browser-warning" fill="#5C5C5C"></path>
        </g>
    </g>
</svg>