<?xml version="1.0" encoding="UTF-8"?>
<svg width="24px" height="24px" viewBox="0 0 24 24" version="1.1" xmlns="http://www.w3.org/2000/svg" xmlns:xlink="http://www.w3.org/1999/xlink">
    <!-- Generator: Sketch 58 (84663) - https://sketch.com -->
    <title>Icon / 24px / browser-warning</title>
    <desc>Created with Sketch.</desc>
    <g id="Icon-/-24px-/-browser-warning" stroke="none" stroke-width="1" fill="none" fill-rule="evenodd">
        <g id="icon-/-24px-/-browser-warning">
            <rect id="Background" x="0" y="0" width="24" height="24"></rect>
        </g>
        <path d="M11.3206889,21.0010889 L3.875,21 C2.8891369,21 2.080428,20.2164723 2.00564363,19.222095 L2,19.0714286 L2,4.92857143 C2,3.91454082 2.76176304,3.08272595 3.72851879,3.00580487 L3.875,3 L20.125,3 C21.1108631,3 21.919572,3.7835277 21.9943564,4.77790504 L22,4.92857143 L22.001303,12.4001874 L21.9810606,12.3731962 C22.846744,13.521633 23.36,14.9505333 23.36,16.4988419 C23.36,20.2890978 20.2878058,23.3601853 16.4986566,23.3601853 C14.4079122,23.3601853 12.535446,22.4251874 11.2769094,20.9502851 L11.3206889,21.0010889 L11.3206889,21.0010889 Z M16.4986566,10.9655004 C13.4407107,10.9655004 10.9653151,13.441809 10.9653151,16.4988419 C10.9653151,19.557922 13.4406001,22.0321833 16.4986566,22.0321833 C19.5577367,22.0321833 22.031998,19.556843 22.031998,16.4988419 C22.031998,13.4408684 19.5555787,10.9655004 16.4986566,10.9655004 Z M11.0842832,20.7141705 L11.114363,20.752472 C11.1042577,20.7396977 11.0941968,20.7268867 11.0841807,20.7140391 L11.0842832,20.7141705 Z M10.9197204,20.4941857 L10.9353307,20.5158563 C10.9107356,20.481852 10.8864445,20.4476131 10.8624616,20.4131437 L10.9197204,20.4941857 L10.9197204,20.4941857 Z M10.7252482,20.2081863 L10.7371676,20.226636 C10.7331204,20.2203934 10.7290831,20.2141438 10.7250557,20.2078872 L10.7252482,20.2081863 Z M10.3916019,19.6298915 L10.409958,19.6653707 C10.4037914,19.6535366 10.3976584,19.6416823 10.3915589,19.6298079 L10.3916019,19.6298915 Z M20.125,8.46428571 L3.875,8.46428571 L3.875,18.8303571 C3.875,18.9408482 3.94824219,19.0345982 4.04725477,19.062779 L4.109375,19.0714286 L10.135987,19.0719245 L10.1515405,19.1100215 C9.82011741,18.305179 9.63731313,17.4234067 9.63731313,16.4988419 C9.63731313,12.7107993 12.7095073,9.63749843 16.4986566,9.63749843 C17.8368878,9.63749843 19.0856917,10.0208383 20.1413144,10.6836182 L20.1254854,10.6737098 L20.1254854,10.6737098 L20.125,8.46428571 Z M21.5753959,11.8837106 L21.6065228,11.9181621 L21.6065228,11.9181621 C21.5960193,11.9064592 21.5857264,11.8950675 21.5753959,11.8837106 Z M20.9361911,11.26601 L20.9039711,11.238826 C20.9148358,11.2479359 20.9256719,11.2570788 20.9364793,11.2662546 L20.9361911,11.26601 Z M20.6635801,11.0462377 L20.6536905,11.0386852 C20.6570908,11.0412771 20.6604886,11.043872 20.6638838,11.0464701 L20.6635801,11.0462377 Z M20.3743977,10.8366414 L20.4210288,10.8689107 L20.4210288,10.8689107 C20.4052028,10.8578642 20.3898229,10.8472221 20.3743977,10.8366414 Z M5.90625,4.92857143 L4.34375,4.92857143 C4.11458333,4.92857143 3.9224537,5.1 3.88258745,5.32433862 L3.875,5.41071429 L3.875,6.375 C3.875,6.61071429 4.04166667,6.80833333 4.25977366,6.84933862 L4.34375,6.85714286 L5.90625,6.85714286 C6.13541667,6.85714286 6.3275463,6.68571429 6.36741255,6.46137566 L6.375,6.375 L6.375,5.41071429 C6.375,5.14553571 6.1640625,4.92857143 5.90625,4.92857143 Z M19.65625,4.92857143 L8.71875,4.92857143 C8.48958333,4.92857143 8.2974537,5.1 8.25758745,5.32433862 L8.25,5.41071429 L8.25,6.375 C8.25,6.61071429 8.41666667,6.80833333 8.63477366,6.84933862 L8.71875,6.85714286 L19.65625,6.85714286 C19.8854167,6.85714286 20.0775463,6.68571429 20.1174126,6.46137566 L20.125,6.375 L20.125,5.41071429 C20.125,5.14553571 19.9140625,4.92857143 19.65625,4.92857143 Z M17.6621094,19.15625 C17.6621094,19.7970427 17.1407926,20.3183594 16.5,20.3183594 C15.8592074,20.3183594 15.3378906,19.7970427 15.3378906,19.15625 C15.3378906,18.5154574 15.8592074,17.9941406 16.5,17.9941406 C17.1407926,17.9941406 17.6621094,18.5154574 17.6621094,19.15625 Z M15.4106608,13.3069385 L15.5988118,17.0699593 C15.6076383,17.2466829 15.7535107,17.3854167 15.9304281,17.3854167 L17.0695719,17.3854167 C17.2464893,17.3854167 17.3923617,17.2466829 17.4011882,17.0699593 L17.5893392,13.3069385 C17.5988298,13.1172933 17.4476172,12.9583333 17.257723,12.9583333 L15.742277,12.9583333 C15.5523828,12.9583333 15.4011702,13.1172933 15.4106608,13.3069385 L15.4106608,13.3069385 Z" id="browser-warning" fill="#5C5C5C"></path>
    </g>
</svg>