<?xml version="1.0" encoding="UTF-8"?>
<svg width="24px" height="24px" viewBox="0 0 24 24" version="1.1" xmlns="http://www.w3.org/2000/svg" xmlns:xlink="http://www.w3.org/1999/xlink">
    <!-- Generator: Sketch 58 (84663) - https://sketch.com -->
    <title>Icon / 24px / browser-off</title>
    <desc>Created with Sketch.</desc>
    <g id="Icon-/-24px-/-browser-off" stroke="none" stroke-width="1" fill="none" fill-rule="evenodd">
        <g id="icon-/-24px-/-browser-off">
            <rect id="Background" x="0" y="0" width="24" height="24"></rect>
            <path d="M2.80761184,2.39339828 L21.8994949,21.4852814 L20.4852814,22.8994949 L18.5843983,20.9993983 L3.875,21 C2.8891369,21 2.080428,20.2600016 2.00564363,19.3208675 L2,19.1785714 L2,5.82142857 C2,5.42682252 2.12932795,5.06143342 2.34903589,4.76309644 L1.39339828,3.80761184 L2.80761184,2.39339828 Z M16.5843983,18.9993983 L6.58539828,8.99939828 L4,9 L4,18.7727273 C4,18.8768939 4.07211538,18.9652778 4.1696047,18.9918455 L4.23076923,19 L16.5843983,18.9993983 Z M7.192,4 L20.125,4 C21.1108631,4 21.919572,4.73999838 21.9943564,5.67913254 L22,5.82142857 L22,18.851 L20,16.845 L20,9 L12.177,9 L11.18,8 L19.5263158,8 C19.7578947,8 19.9520468,7.82222222 19.9923327,7.58957476 L20,7.5 L20,6.5 C20,6.25555556 19.8315789,6.05061728 19.6111761,6.00809328 L19.5263158,6 L9.186,6 L7.192,4 L20.125,4 Z M4.00639828,6.42039828 L4,6.5 L4,7.5 C4,7.7475 4.20503125,7.9545 4.47157188,7.993425 L4.5625,8 L5.58539828,7.99939828 L4.00639828,6.42039828 Z" id="browser-off" fill="#5C5C5C"></path>
        </g>
    </g>
</svg>