<?xml version="1.0" encoding="UTF-8"?>
<svg width="24px" height="24px" viewBox="0 0 24 24" version="1.1" xmlns="http://www.w3.org/2000/svg" xmlns:xlink="http://www.w3.org/1999/xlink">
    <!-- Generator: Sketch 58 (84663) - https://sketch.com -->
    <title>Icon / 24px / browser-regular</title>
    <desc>Created with Sketch.</desc>
    <g id="Icon-/-24px-/-browser-regular" stroke="none" stroke-width="1" fill="none" fill-rule="evenodd">
        <rect id="Background" x="0" y="0" width="24" height="24"></rect>
        <path d="M20.125,3 L3.875,3 C2.83984375,3 2,3.86383929 2,4.92857143 L2,19.0714286 C2,20.1361607 2.83984375,21 3.875,21 L20.125,21 C21.1601562,21 22,20.1361607 22,19.0714286 L22,4.92857143 C22,3.86383929 21.1601562,3 20.125,3 Z M3.875,5.41071429 C3.875,5.14553571 4.0859375,4.92857143 4.34375,4.92857143 L5.90625,4.92857143 C6.1640625,4.92857143 6.375,5.14553571 6.375,5.41071429 L6.375,6.375 C6.375,6.64017857 6.1640625,6.85714286 5.90625,6.85714286 L4.34375,6.85714286 C4.0859375,6.85714286 3.875,6.64017857 3.875,6.375 L3.875,5.41071429 Z M20.125,18.8303571 C20.125,18.9629464 20.0195312,19.0714286 19.890625,19.0714286 L4.109375,19.0714286 C3.98046875,19.0714286 3.875,18.9629464 3.875,18.8303571 L3.875,8.46428571 L20.125,8.46428571 L20.125,18.8303571 Z M20.125,6.375 C20.125,6.64017857 19.9140625,6.85714286 19.65625,6.85714286 L8.71875,6.85714286 C8.4609375,6.85714286 8.25,6.64017857 8.25,6.375 L8.25,5.41071429 C8.25,5.14553571 8.4609375,4.92857143 8.71875,4.92857143 L19.65625,4.92857143 C19.9140625,4.92857143 20.125,5.14553571 20.125,5.41071429 L20.125,6.375 Z" id="browser-regular" fill="#5C5C5C"></path>
    </g>
</svg>