<?xml version="1.0" encoding="UTF-8"?>
<svg width="24px" height="24px" viewBox="0 0 24 24" version="1.1" xmlns="http://www.w3.org/2000/svg" xmlns:xlink="http://www.w3.org/1999/xlink">
    <!-- Generator: Sketch 58 (84663) - https://sketch.com -->
    <title>Icon / 24px / building-regular-off</title>
    <desc>Created with Sketch.</desc>
    <g id="Icon-/-24px-/-building-regular-off" stroke="none" stroke-width="1" fill="none" fill-rule="evenodd">
        <path d="M2.80761184,2.39339828 L3.13539828,2.72099995 L21.8693983,21.5149999 L20.4852814,22.8994949 L19.5853983,21.9999999 L3.24999996,21.9999999 L3.24999996,20.59375 C3.24999996,20.3359375 3.46093746,20.125 3.71874996,20.125 L4.48046871,20.125 L4.48039828,6.89399995 L1.39339828,3.80761184 L2.80761184,2.39339828 Z M6.36839828,8.78299995 L6.35546872,20.0859375 L10.75,20.0859375 L10.75,17.46875 C10.75,17.2109375 10.9609375,17 11.21875,17 L12.78125,17 C13.0390625,17 13.25,17.2109375 13.25,17.46875 L13.25,20.0859375 L17.6445313,20.0859375 L17.6443983,20.059 L9.58639828,11.9999999 L8.71874998,12 C8.48958332,12 8.29745369,11.8333333 8.25758743,11.6152263 L8.24999998,11.53125 L8.24939828,10.6629999 L6.36839828,8.78299995 Z M18.5820313,1.99999995 C19.1015625,1.99999995 19.5195313,2.4179687 19.5195313,2.93749995 L19.5193983,16.3629999 L17.6443983,14.4829999 L17.6445313,3.91406246 L7.06939828,3.87699995 L5.21831071,2.02111173 C5.28260964,2.00727964 5.34940473,1.99999995 5.41796872,1.99999995 L18.5820313,1.99999995 Z M8.71874998,13.25 L10.28125,13.25 C10.5104167,13.25 10.7025463,13.4166667 10.7424125,13.6347737 L10.75,13.71875 L10.75,15.28125 C10.75,15.5104167 10.5833333,15.7025463 10.3652263,15.7424126 L10.28125,15.75 L8.71874998,15.75 C8.48958332,15.75 8.29745369,15.5833333 8.25758743,15.3652264 L8.24999998,15.28125 L8.24999998,13.71875 C8.24999998,13.4895833 8.41666665,13.2974537 8.63477365,13.2575875 L8.71874998,13.25 L10.28125,13.25 Z M13.71875,9.49999999 L15.28125,9.49999999 C15.5104167,9.49999999 15.7025463,9.66666666 15.7424126,9.88477365 L15.75,9.96874999 L15.75,11.53125 C15.75,11.7604167 15.5833333,11.9525463 15.3652264,11.9924125 L15.28125,12 L15.1693983,11.9999999 L13.2493983,10.0749999 L13.25,9.96874999 C13.25,9.73958332 13.4166667,9.54745369 13.6347737,9.50758744 L13.71875,9.49999999 L15.28125,9.49999999 Z M13.71875,5.74999997 L15.28125,5.74999997 C15.5104167,5.74999997 15.7025463,5.91666664 15.7424126,6.13477363 L15.75,6.21874997 L15.75,7.78124998 C15.75,8.01041665 15.5833333,8.20254627 15.3652264,8.24241252 L15.28125,8.24999997 L13.71875,8.24999997 C13.4895833,8.24999997 13.2974537,8.08333331 13.2575875,7.86522632 L13.25,7.78124998 L13.25,6.21874997 C13.25,5.9895833 13.4166667,5.79745367 13.6347737,5.75758742 L13.71875,5.74999997 L15.28125,5.74999997 Z M10.28125,5.74999997 C10.5390625,5.74999997 10.75,5.96093747 10.75,6.21874997 L10.7493983,7.56799995 L8.93739828,5.74999995 L10.28125,5.74999997 Z" id="Combined-Shape" fill="#5C5C5C"></path>
    </g>
</svg>