<?xml version="1.0" encoding="UTF-8"?>
<svg width="24px" height="24px" viewBox="0 0 24 24" version="1.1" xmlns="http://www.w3.org/2000/svg" xmlns:xlink="http://www.w3.org/1999/xlink">
    <!-- Generator: Sketch 58 (84663) - https://sketch.com -->
    <title>Icon / 24px / building-regular</title>
    <desc>Created with Sketch.</desc>
    <g id="Icon-/-24px-/-building-regular" stroke="none" stroke-width="1" fill="none" fill-rule="evenodd">
        <path d="M8.24999998,7.78124998 L8.24999998,6.21874997 C8.24999998,5.96093747 8.46093748,5.74999997 8.71874998,5.74999997 L10.28125,5.74999997 C10.5390625,5.74999997 10.75,5.96093747 10.75,6.21874997 L10.75,7.78124998 C10.75,8.03906248 10.5390625,8.24999997 10.28125,8.24999997 L8.71874998,8.24999997 C8.46093748,8.24999997 8.24999998,8.03906248 8.24999998,7.78124998 Z M13.71875,8.24999997 L15.28125,8.24999997 C15.5390625,8.24999997 15.75,8.03906248 15.75,7.78124998 L15.75,6.21874997 C15.75,5.96093747 15.5390625,5.74999997 15.28125,5.74999997 L13.71875,5.74999997 C13.4609375,5.74999997 13.25,5.96093747 13.25,6.21874997 L13.25,7.78124998 C13.25,8.03906248 13.4609375,8.24999997 13.71875,8.24999997 Z M8.71874998,12 L10.28125,12 C10.5390625,12 10.75,11.7890625 10.75,11.53125 L10.75,9.96874999 C10.75,9.71093749 10.5390625,9.49999999 10.28125,9.49999999 L8.71874998,9.49999999 C8.46093748,9.49999999 8.24999998,9.71093749 8.24999998,9.96874999 L8.24999998,11.53125 C8.24999998,11.7890625 8.46093748,12 8.71874998,12 Z M13.71875,12 L15.28125,12 C15.5390625,12 15.75,11.7890625 15.75,11.53125 L15.75,9.96874999 C15.75,9.71093749 15.5390625,9.49999999 15.28125,9.49999999 L13.71875,9.49999999 C13.4609375,9.49999999 13.25,9.71093749 13.25,9.96874999 L13.25,11.53125 C13.25,11.7890625 13.4609375,12 13.71875,12 Z M10.75,15.28125 L10.75,13.71875 C10.75,13.4609375 10.5390625,13.25 10.28125,13.25 L8.71874998,13.25 C8.46093748,13.25 8.24999998,13.4609375 8.24999998,13.71875 L8.24999998,15.28125 C8.24999998,15.5390625 8.46093748,15.75 8.71874998,15.75 L10.28125,15.75 C10.5390625,15.75 10.75,15.5390625 10.75,15.28125 Z M13.71875,15.75 L15.28125,15.75 C15.5390625,15.75 15.75,15.5390625 15.75,15.28125 L15.75,13.71875 C15.75,13.4609375 15.5390625,13.25 15.28125,13.25 L13.71875,13.25 C13.4609375,13.25 13.25,13.4609375 13.25,13.71875 L13.25,15.28125 C13.25,15.5390625 13.4609375,15.75 13.71875,15.75 Z M20.75,20.59375 L20.75,21.9999999 L3.24999996,21.9999999 L3.24999996,20.59375 C3.24999996,20.3359375 3.46093746,20.125 3.71874996,20.125 L4.48046871,20.125 L4.48046871,2.93749995 C4.48046871,2.4179687 4.89843746,1.99999995 5.41796872,1.99999995 L18.5820313,1.99999995 C19.1015625,1.99999995 19.5195313,2.4179687 19.5195313,2.93749995 L19.5195313,20.125 L20.28125,20.125 C20.5390625,20.125 20.75,20.3359375 20.75,20.59375 Z M6.35546872,20.0859375 L10.75,20.0859375 L10.75,17.46875 C10.75,17.2109375 10.9609375,17 11.21875,17 L12.78125,17 C13.0390625,17 13.25,17.2109375 13.25,17.46875 L13.25,20.0859375 L17.6445313,20.0859375 L17.6445313,3.91406246 L6.37499997,3.87499996 L6.35546872,20.0859375 Z" id="building-regular" fill="#5C5C5C"></path>
    </g>
</svg>