<?xml version="1.0" encoding="UTF-8"?>
<svg width="24px" height="24px" viewBox="0 0 24 24" version="1.1" xmlns="http://www.w3.org/2000/svg" xmlns:xlink="http://www.w3.org/1999/xlink">
    <!-- Generator: Sketch 58 (84663) - https://sketch.com -->
    <title>Icon / 24px / calendar-day-regular</title>
    <desc>Created with Sketch.</desc>
    <g id="Icon-/-24px-/-calendar-day-regular" stroke="none" stroke-width="1" fill="none" fill-rule="evenodd">
        <path d="M7.62499998,16.375 L11.375,16.375 C11.71875,16.375 12,16.09375 12,15.75 L12,12 C12,11.65625 11.71875,11.375 11.375,11.375 L7.62499998,11.375 C7.28124998,11.375 6.99999997,11.65625 6.99999997,12 L6.99999997,15.75 C6.99999997,16.09375 7.28124998,16.375 7.62499998,16.375 Z M18.875,4.49999995 L17,4.49999995 L17,2.62499995 C17,2.28124995 16.71875,1.99999995 16.375,1.99999995 L15.125,1.99999995 C14.78125,1.99999995 14.5,2.28124995 14.5,2.62499995 L14.5,4.49999995 L9.49999999,4.49999995 L9.49999999,2.62499995 C9.49999999,2.28124995 9.21874999,1.99999995 8.87499998,1.99999995 L7.62499998,1.99999995 C7.28124998,1.99999995 6.99999997,2.28124995 6.99999997,2.62499995 L6.99999997,4.49999995 L5.12499997,4.49999995 C4.08984371,4.49999995 3.24999996,5.33984372 3.24999996,6.37499997 L3.24999996,20.125 C3.24999996,21.1601563 4.08984371,21.9999999 5.12499997,21.9999999 L18.875,21.9999999 C19.9101563,21.9999999 20.75,21.1601563 20.75,20.125 L20.75,6.37499997 C20.75,5.33984372 19.9101563,4.49999995 18.875,4.49999995 Z M18.875,19.890625 C18.875,20.0195313 18.7695313,20.125 18.640625,20.125 L5.35937497,20.125 C5.23046872,20.125 5.12499997,20.0195313 5.12499997,19.890625 L5.12499997,8.24999998 L18.875,8.24999998 L18.875,19.890625 Z" id="calendar-day-regular" fill="#5C5C5C"></path>
    </g>
</svg>