<?xml version="1.0" encoding="UTF-8"?>
<svg width="24px" height="24px" viewBox="0 0 24 24" version="1.1" xmlns="http://www.w3.org/2000/svg" xmlns:xlink="http://www.w3.org/1999/xlink">
    <!-- Generator: Sketch 58 (84663) - https://sketch.com -->
    <title>Icon / 24px / Checkbox-disabled</title>
    <desc>Created with Sketch.</desc>
    <defs>
        <path d="M4.22222222,2 L19.7777778,2 C20.9468599,2 21.9126234,2.91493384 21.9943928,4.0641261 L22,4.22222222 L22,19.7777778 C22,20.9468599 21.0850662,21.9126234 19.9358739,21.9943928 L19.7777778,22 L4.22222222,22 C3.0531401,22 2.0873766,21.0850662 2.00560715,19.9358739 L2,19.7777778 L2,4.22222222 C2,3.0531401 2.91493384,2.0873766 4.0641261,2.00560715 L4.22222222,2 L19.7777778,2 Z M19.8,4 L4.2,4 C4.10795254,4 4.03042863,4.06218267 4.00714419,4.14683208 L4,4.2 L4,19.8 C4,19.8920475 4.06218267,19.9695714 4.14683208,19.9928558 L4.2,20 L19.8,20 C19.8920475,20 19.9695714,19.9378173 19.9928558,19.8531679 L20,19.8 L20,4.2 C20,4.08954305 19.9104569,4 19.8,4 Z M18,11 L18,13 L6,13 L6,11 L18,11 Z" id="path-1"></path>
    </defs>
    <g id="Icon-/-24px-/-Checkbox-disabled" stroke="none" stroke-width="1" fill="none" fill-rule="evenodd">
        <rect id="Background" x="0" y="0" width="24" height="24"></rect>
        <mask id="mask-2" fill="white">
            <use xlink:href="#path-1"></use>
        </mask>
        <use id="Checkbox-disabled" fill="#5C5C5C" xlink:href="#path-1"></use>
    </g>
</svg>