<?xml version="1.0" encoding="UTF-8"?>
<svg width="24px" height="24px" viewBox="0 0 24 24" version="1.1" xmlns="http://www.w3.org/2000/svg" xmlns:xlink="http://www.w3.org/1999/xlink">
    <!-- Generator: Sketch 58 (84663) - https://sketch.com -->
    <title>Icon / 24px / check-circle-regular</title>
    <desc>Created with Sketch.</desc>
    <g id="Icon-/-24px-/-check-circle-regular" stroke="none" stroke-width="1" fill="none" fill-rule="evenodd">
        <path d="M12,2.31249995 C6.64972654,2.31249995 2.31249995,6.64972654 2.31249995,12 C2.31249995,17.3502735 6.64972654,21.6875 12,21.6875 C17.3502735,21.6875 21.6875,17.3502735 21.6875,12 C21.6875,6.64972654 17.3502735,2.31249995 12,2.31249995 Z M12,4.18749996 C16.3176563,4.18749996 19.8125,7.68167967 19.8125,12 C19.8125,16.3176563 16.3183203,19.8125 12,19.8125 C7.68234373,19.8125 4.18749996,16.3183203 4.18749996,12 C4.18749996,7.68234373 7.68167967,4.18749996 12,4.18749996 L12,4.18749996 Z M17.4767188,9.27605467 L16.5964063,8.38863279 C16.4141016,8.20484373 16.1173047,8.20363279 15.9335156,8.38597654 L10.4119531,13.8631641 L8.07632811,11.5085937 C7.89402342,11.3248047 7.59722654,11.3235937 7.41343748,11.5058984 L6.52597654,12.3862109 C6.34218747,12.5685156 6.34097653,12.8653125 6.52332029,13.0491406 L10.0694531,16.6239844 C10.2517578,16.8077735 10.5485547,16.8089844 10.7323437,16.6266406 L17.4741016,9.93898436 C17.6578516,9.75664061 17.6590235,9.45984374 17.4767188,9.27605467 L17.4767188,9.27605467 Z" id="check-circle-regular" fill="#5C5C5C"></path>
    </g>
</svg>