<?xml version="1.0" encoding="UTF-8"?>
<svg width="24px" height="24px" viewBox="0 0 24 24" version="1.1" xmlns="http://www.w3.org/2000/svg" xmlns:xlink="http://www.w3.org/1999/xlink">
    <!-- Generator: Sketch 58 (84663) - https://sketch.com -->
    <title>Icon / 24px / Checkbox-hover</title>
    <desc>Created with Sketch.</desc>
    <defs>
        <path d="M19.7777778,2 C21,2 22,3 22,4.22222222 L22,4.22222222 L22,19.7777778 C22,21 21,22 19.7777778,22 L19.7777778,22 L4.22222222,22 C3,22 2,21 2,19.7777778 L2,19.7777778 L2,4.22222222 C2,3 3,2 4.22222222,2 L4.22222222,2 Z M19.8,4 L4.2,4 C4.08954305,4 4,4.08954305 4,4.2 L4,4.2 L4,19.8 C4,19.9104569 4.08954305,20 4.2,20 L4.2,20 L19.8,20 C19.9104569,20 20,19.9104569 20,19.8 L20,19.8 L20,4.2 C20,4.08954305 19.9104569,4 19.8,4 L19.8,4 Z" id="path-1"></path>
    </defs>
    <g id="Icon-/-24px-/-Checkbox-hover" stroke="none" stroke-width="1" fill="none" fill-rule="evenodd">
        <rect id="Background" x="0" y="0" width="24" height="24"></rect>
        <mask id="mask-2" fill="white">
            <use xlink:href="#path-1"></use>
        </mask>
        <use id="Checkbox-off-hover" fill="#5C5C5C" xlink:href="#path-1"></use>
    </g>
</svg>