<?xml version="1.0" encoding="UTF-8"?>
<svg width="24px" height="24px" viewBox="0 0 24 24" version="1.1" xmlns="http://www.w3.org/2000/svg" xmlns:xlink="http://www.w3.org/1999/xlink">
    <!-- Generator: Sketch 58 (84663) - https://sketch.com -->
    <title>Icon / 24px / comments-alt-solid</title>
    <desc>Created with Sketch.</desc>
    <g id="Icon-/-24px-/-comments-alt-solid" stroke="none" stroke-width="1" fill="none" fill-rule="evenodd">
        <path d="M16.4444444,10.7490971 L16.4444444,4.49974204 C16.4444444,3.12097807 15.4479167,2 14.2222222,2 L4.22222222,2 C2.99652778,2 2,3.12097807 2,4.49974204 L2,10.7490971 C2,12.1278611 2.99652778,13.2488392 4.22222222,13.2488392 L4.22222222,15.3658082 C4.22222222,15.678276 4.53819444,15.8579449 4.76041667,15.6704643 L7.63541667,13.2449333 L14.2222222,13.2449333 C15.4479167,13.2488392 16.4444444,12.1278611 16.4444444,10.7490971 Z M19.7777778,8.2493551 L17.5555556,8.2493551 L17.5555556,10.7490971 C17.5555556,12.8152902 16.0590278,14.4987102 14.2222222,14.4987102 L8.66666667,14.4987102 L8.66666667,16.9984522 C8.66666667,18.3772162 9.66319444,19.4981943 10.8888889,19.4981943 L15.2534722,19.4981943 L18.1284722,21.9237252 C18.3506944,22.1112059 18.6666667,21.9315369 18.6666667,21.6190692 L18.6666667,19.4981943 L19.7777778,19.4981943 C21.0034722,19.4981943 22,18.3772162 22,16.9984522 L22,10.7490971 C22,9.37033317 21.0034722,8.2493551 19.7777778,8.2493551 Z" id="comments-alt-solid" fill="#5C5C5C"></path>
    </g>
</svg>