<?xml version="1.0" encoding="UTF-8"?>
<svg width="24px" height="24px" viewBox="0 0 24 24" version="1.1" xmlns="http://www.w3.org/2000/svg" xmlns:xlink="http://www.w3.org/1999/xlink">
    <!-- Generator: Sketch 58 (84663) - https://sketch.com -->
    <title>Icon / 24px / compass-regular</title>
    <desc>Created with Sketch.</desc>
    <g id="Icon-/-24px-/-compass-regular" stroke="none" stroke-width="1" fill="none" fill-rule="evenodd">
        <path d="M15.9039063,7.07265623 L10.265625,9.64960936 C9.99293492,9.77425413 9.77425413,9.99293492 9.64960936,10.265625 L7.07265623,15.9039063 C6.7753906,16.5542969 7.44531248,17.2246094 8.09609373,16.9273438 L13.734375,14.3503906 C14.0070651,14.2257459 14.2257459,14.0070651 14.3503906,13.734375 L16.9273438,8.09609373 C17.2246094,7.44531248 16.5546875,6.7753906 15.9039063,7.07265623 Z M12.8820313,12.8820313 C12.3949219,13.3691406 11.6050781,13.3691406 11.1179687,12.8820313 C10.6308594,12.3949219 10.6308594,11.6050781 11.1179687,11.1179687 C11.6050781,10.6308594 12.3949219,10.6308594 12.8820313,11.1179687 C13.3691406,11.6050781 13.3691406,12.3949219 12.8820313,12.8820313 Z M12,2.31249995 C6.64960935,2.31249995 2.31249995,6.64960935 2.31249995,12 C2.31249995,17.3503907 6.64960935,21.6875 12,21.6875 C17.3503907,21.6875 21.6875,17.3503907 21.6875,12 C21.6875,6.64960935 17.3503907,2.31249995 12,2.31249995 Z M12,19.8125 C7.69218748,19.8125 4.18749996,16.3078125 4.18749996,12 C4.18749996,7.69218748 7.69218748,4.18749996 12,4.18749996 C16.3078125,4.18749996 19.8125,7.69218748 19.8125,12 C19.8125,16.3078125 16.3078125,19.8125 12,19.8125 Z" id="compass-regular" fill="#5C5C5C"></path>
    </g>
</svg>