<?xml version="1.0" encoding="UTF-8"?>
<svg width="24px" height="24px" viewBox="0 0 24 24" version="1.1" xmlns="http://www.w3.org/2000/svg" xmlns:xlink="http://www.w3.org/1999/xlink">
    <!-- Generator: Sketch 58 (84663) - https://sketch.com -->
    <title>Icon / 24px / edit-regular</title>
    <desc>Created with Sketch.</desc>
    <g id="Icon-/-24px-/-edit-regular" stroke="none" stroke-width="1" fill="none" fill-rule="evenodd">
        <path d="M15.96875,15.1368421 L17.0798611,14.0140351 C17.2534722,13.8385965 17.5555556,13.9614035 17.5555556,14.2140351 L17.5555556,19.3157895 C17.5555556,20.245614 16.8090278,21 15.8888889,21 L3.66666667,21 C2.74652778,21 2,20.245614 2,19.3157895 L2,6.96491228 C2,6.03508772 2.74652778,5.28070175 3.66666667,5.28070175 L13.1631944,5.28070175 C13.4097222,5.28070175 13.5347222,5.58245614 13.3611111,5.76140351 L12.25,6.88421053 C12.1979167,6.93684211 12.1284722,6.96491228 12.0520833,6.96491228 L3.66666667,6.96491228 L3.66666667,19.3157895 L15.8888889,19.3157895 L15.8888889,15.3333333 C15.8888889,15.2596491 15.9166667,15.1894737 15.96875,15.1368421 Z M21.40625,8.05614035 L12.2881944,17.2701754 L9.14930556,17.6210526 C8.23958333,17.722807 7.46527778,16.9473684 7.56597222,16.0210526 L7.91319444,12.8491228 L17.03125,3.63508772 C17.8263889,2.83157895 19.1111111,2.83157895 19.9027778,3.63508772 L21.4027778,5.15087719 C22.1979167,5.95438596 22.1979167,7.25614035 21.40625,8.05614035 L21.40625,8.05614035 Z M17.9756944,9.14035088 L15.9583333,7.10175439 L9.50694444,13.6245614 L9.25347222,15.9157895 L11.5208333,15.6596491 L17.9756944,9.14035088 Z M20.2256944,6.34385965 L18.7256944,4.82807018 C18.5833333,4.68421053 18.3506944,4.68421053 18.2118056,4.82807018 L17.1388889,5.9122807 L19.15625,7.95087719 L20.2291667,6.86666667 C20.3680556,6.71929825 20.3680556,6.4877193 20.2256944,6.34385965 L20.2256944,6.34385965 Z" id="edit-regular" fill="#5C5C5C"></path>
    </g>
</svg>