<?xml version="1.0" encoding="UTF-8"?>
<svg width="24px" height="24px" viewBox="0 0 24 24" version="1.1" xmlns="http://www.w3.org/2000/svg" xmlns:xlink="http://www.w3.org/1999/xlink">
    <!-- Generator: Sketch 58 (84663) - https://sketch.com -->
    <title>Icon / 24px / ellipsis-v-regular</title>
    <desc>Created with Sketch.</desc>
    <g id="Icon-/-24px-/-ellipsis-v-regular" stroke="none" stroke-width="1" fill="none" fill-rule="evenodd">
        <path d="M12,10.125 C13.0351563,10.125 13.875,10.9648437 13.875,12 C13.875,13.0351563 13.0351563,13.875 12,13.875 C10.9648437,13.875 10.125,13.0351563 10.125,12 C10.125,10.9648437 10.9648437,10.125 12,10.125 Z M10.125,6.06249997 C10.125,7.09765623 10.9648437,7.93749998 12,7.93749998 C13.0351563,7.93749998 13.875,7.09765623 13.875,6.06249997 C13.875,5.02734372 13.0351563,4.18749996 12,4.18749996 C10.9648437,4.18749996 10.125,5.02734372 10.125,6.06249997 Z M10.125,17.9375 C10.125,18.9726563 10.9648437,19.8125 12,19.8125 C13.0351563,19.8125 13.875,18.9726563 13.875,17.9375 C13.875,16.9023438 13.0351563,16.0625 12,16.0625 C10.9648437,16.0625 10.125,16.9023438 10.125,17.9375 Z" id="ellipsis-v-regular" fill="#5C5C5C"></path>
    </g>
</svg>