<?xml version="1.0" encoding="UTF-8"?>
<svg width="24px" height="24px" viewBox="0 0 24 24" version="1.1" xmlns="http://www.w3.org/2000/svg" xmlns:xlink="http://www.w3.org/1999/xlink">
    <!-- Generator: Sketch 58 (84663) - https://sketch.com -->
    <title>Icon / 24px / exclamation-circle-regular</title>
    <desc>Created with Sketch.</desc>
    <g id="Icon-/-24px-/-exclamation-circle-regular" stroke="none" stroke-width="1" fill="none" fill-rule="evenodd">
        <path d="M12,2.31249995 C6.65011716,2.31249995 2.31249995,6.65167966 2.31249995,12 C2.31249995,17.3514453 6.65011716,21.6875 12,21.6875 C17.3498828,21.6875 21.6875,17.3514453 21.6875,12 C21.6875,6.65167966 17.3498828,2.31249995 12,2.31249995 Z M12,19.8125 C7.68234373,19.8125 4.18749996,16.3191016 4.18749996,12 C4.18749996,7.68378904 7.68249998,4.18749996 12,4.18749996 C16.3160547,4.18749996 19.8125,7.68246092 19.8125,12 C19.8125,16.3175781 16.3191016,19.8125 12,19.8125 Z M13.640625,15.75 C13.640625,16.6546485 12.9046484,17.390625 12,17.390625 C11.0953516,17.390625 10.359375,16.6546485 10.359375,15.75 C10.359375,14.8453516 11.0953516,14.109375 12,14.109375 C12.9046484,14.109375 13.640625,14.8453516 13.640625,15.75 Z M10.4621094,7.49214841 L10.7277344,12.8046484 C10.7401953,13.0541406 10.9461328,13.25 11.1958984,13.25 L12.8041016,13.25 C13.0538672,13.25 13.2598047,13.0541406 13.2722656,12.8046484 L13.5378906,7.49214841 C13.5512891,7.22441404 13.3378125,6.99999997 13.0697266,6.99999997 L10.9302734,6.99999997 C10.6621875,6.99999997 10.4487109,7.22441404 10.4621094,7.49214841 L10.4621094,7.49214841 Z" id="exclamation-circle-regular" fill="#5C5C5C"></path>
    </g>
</svg>