<?xml version="1.0" encoding="UTF-8"?>
<svg width="24px" height="24px" viewBox="0 0 24 24" version="1.1" xmlns="http://www.w3.org/2000/svg" xmlns:xlink="http://www.w3.org/1999/xlink">
    <!-- Generator: Sketch 58 (84663) - https://sketch.com -->
    <title>Icon / 24px / expired</title>
    <desc>Created with Sketch.</desc>
    <g id="Icon-/-24px-/-expired" stroke="none" stroke-width="1" fill="none" fill-rule="evenodd">
        <g id="icon-/-24px-/-expired">
            <rect id="Background" x="0" y="0" width="24" height="24"></rect>
            <path d="M8.94642857,1 C9.18214286,1 9.3797619,1.16666667 9.4207672,1.38477366 L9.42857143,1.46875 L9.42857143,3.5 L14.5714286,3.5 L14.5714286,1.46875 C14.5714286,1.23958333 14.7428571,1.0474537 14.9671958,1.00758745 L15.0535714,1 L16.6607143,1 C16.8964286,1 17.0940476,1.16666667 17.1350529,1.38477366 L17.1428571,1.46875 L17.1428571,3.5 L19.0714286,3.5 C20.0854592,3.5 20.9172741,4.26176304 20.9941951,5.22851879 L21,5.375 L21.0009868,11.3152793 L21.0144444,11.3305234 C22.0785245,12.5394444 22.7239584,14.1256321 22.7239584,15.8619792 C22.7239584,19.6525863 19.6514795,22.7239584 15.8619792,22.7239584 C14.0907365,22.7239584 12.4761417,22.0529551 11.2587215,20.9511363 L11.313919,21.000556 L4.92857143,21 C3.91454082,21 3.08272595,20.238237 3.00580487,19.2714812 L3,19.125 L3,5.375 C3,4.3891369 3.7835277,3.580428 4.77790504,3.50564363 L4.92857143,3.5 L6.85714286,3.5 L6.85714286,1.46875 C6.85714286,1.23958333 7.02857143,1.0474537 7.25291005,1.00758745 L7.33928571,1 L8.94642857,1 Z M15.8619792,10.328125 C12.80375,10.328125 10.328125,12.8046631 10.328125,15.8619792 C10.328125,18.9213428 12.8036393,21.3958334 15.8619792,21.3958334 C18.9213428,21.3958334 21.3958334,18.9202637 21.3958334,15.8619792 C21.3958334,12.8037223 18.9191846,10.328125 15.8619792,10.328125 Z M10.8037296,20.4991713 L10.835,20.534 L10.8202447,20.5171124 L10.8202447,20.5171124 L10.8037296,20.4991713 Z M10.568,20.228 L10.5968264,20.2630403 C10.6085452,20.277045 10.6203189,20.2910023 10.6321471,20.3049117 L10.568,20.228 Z M19.0714286,7.25 L4.92857143,7.25 L4.92857143,18.890625 C4.92857143,18.9980469 5.00390625,19.0891927 5.10574777,19.1165907 L5.16964286,19.125 L9.82397242,19.1252784 C9.30004676,18.1608709 9,17.0465439 9,15.8619792 C9,12.0735856 12.0724789,9 15.8619792,9 C17.032503,9 18.1346154,9.29325263 19.0988986,9.81024235 L19.0719851,9.79589011 L19.0714286,7.25 Z M18.8357534,13.0335521 C19.1002351,13.2980338 19.1002351,13.7268434 18.8357534,13.9913251 L16.9654559,15.8612721 L18.8357534,17.7326333 C19.1002351,17.997115 19.1002351,18.4259246 18.8357534,18.6904063 C18.5712716,18.9548881 18.142462,18.9548881 17.8779803,18.6904063 L16.0073262,16.8194018 L14.1366722,18.6904063 C13.8721904,18.9548881 13.4433808,18.9548881 13.1788991,18.6904063 C12.9144174,18.4259246 12.9144174,17.997115 13.1788991,17.7326333 L15.0491965,15.8612721 L13.1788991,13.9913251 C12.9144174,13.7268434 12.9144174,13.2980338 13.1788991,13.0335521 C13.4433808,12.7690703 13.8721904,12.7690703 14.1366722,13.0335521 L16.0073262,14.9031424 L17.8779803,13.0335521 C18.142462,12.7690703 18.5712716,12.7690703 18.8357534,13.0335521 Z M20.836,11.136 L20.987,11.301 L20.8880815,11.1908483 L20.8880815,11.1908483 L20.836,11.136 Z M20.7722016,11.06922 L20.836,11.136 L20.8170535,11.1155962 L20.7722016,11.06922 L20.7722016,11.06922 Z M19.8317163,10.2646321 L19.868974,10.2912952 C19.8562184,10.2821043 19.8439823,10.2733486 19.8317163,10.2646321 Z M19.5719259,10.0887937 L19.6420236,10.1345485 C19.6186971,10.1191198 19.5953604,10.1038873 19.5719259,10.0887937 Z" id="expired" fill="#5C5C5C"></path>
        </g>
    </g>
</svg>