<?xml version="1.0" encoding="UTF-8"?>
<svg width="24px" height="24px" viewBox="0 0 24 24" version="1.1" xmlns="http://www.w3.org/2000/svg" xmlns:xlink="http://www.w3.org/1999/xlink">
    <!-- Generator: Sketch 58 (84663) - https://sketch.com -->
    <title>Icon / 24px / external-link-square-alt-regular</title>
    <desc>Created with Sketch.</desc>
    <g id="Icon-/-24px-/-external-link-square-alt-regular" stroke="none" stroke-width="1" fill="none" fill-rule="evenodd">
        <path d="M19.8571429,2 L4.14285714,2 C2.959375,2 2,2.959375 2,4.14285714 L2,19.8571429 C2,21.040625 2.959375,22 4.14285714,22 L19.8571429,22 C21.040625,22 22,21.040625 22,19.8571429 L22,4.14285714 C22,2.959375 21.040625,2 19.8571429,2 Z M19.5892857,19.8571429 L4.41071429,19.8571429 C4.26278087,19.8571429 4.14285714,19.7372191 4.14285714,19.5892857 L4.14285714,4.41071429 C4.14285714,4.26278087 4.26278087,4.14285714 4.41071429,4.14285714 L19.5892857,4.14285714 C19.7372191,4.14285714 19.8571429,4.26278087 19.8571429,4.41071429 L19.8571429,19.5892857 C19.8571429,19.7372191 19.7372191,19.8571429 19.5892857,19.8571429 L19.5892857,19.8571429 Z M17.1785714,6.28571429 L11.1078125,6.28571429 C10.6320089,6.28571429 10.3917857,6.86294643 10.7290179,7.20022321 L12.8802232,9.35205357 L6.44263393,15.7896429 C6.2334375,15.9988393 6.2334375,16.3380357 6.44263393,16.5472768 L7.45276786,17.5574107 C7.66200893,17.7666071 8.00120536,17.7666071 8.21040179,17.5574107 L14.6479464,11.1198661 L16.7997768,13.2712946 C17.1351786,13.6066964 17.7142857,13.3710714 17.7142857,12.8925 L17.7142857,6.82142857 C17.7142857,6.52558036 17.4744196,6.28571429 17.1785714,6.28571429 Z" id="external-link-square-alt-regular" fill="#5C5C5C"></path>
    </g>
</svg>