<svg height="24" viewBox="0 0 24 24" width="24" xmlns="http://www.w3.org/2000/svg"><path d="m19.8571429 2h-15.71428576c-1.18348214 0-2.14285714.959375-2.14285714 2.14285714v15.71428576c0 1.1834821.959375 2.1428571 2.14285714 2.1428571h15.71428576c1.1834821 0 2.1428571-.959375 2.1428571-2.1428571v-15.71428576c0-1.18348214-.959375-2.14285714-2.1428571-2.14285714zm-.2678572 17.8571429h-15.17857141c-.14793342 0-.26785715-.1199238-.26785715-.2678572v-15.17857141c0-.14793342.11992373-.26785715.26785715-.26785715h15.17857141c.1479334 0 .2678572.11992373.2678572.26785715v15.17857141c0 .1479334-.1199238.2678572-.2678572.2678572zm-2.4107143-13.57142861h-6.0707589c-.4758036 0-.7160268.57723214-.3787946.91450892l2.1512053 2.15183036-6.43758927 6.43758933c-.20919643.2091964-.20919643.5483928 0 .7576339l1.01013393 1.0101339c.20924107.2091964.5484375.2091964.75763393 0l6.43754461-6.4375446 2.1518304 2.1514285c.3354018.3354018.9145089.0997768.9145089-.3787946v-6.07107143c0-.29584821-.2398661-.53571428-.5357143-.53571428z" fill="#5c5c5c" fill-rule="evenodd"/></svg>