<?xml version="1.0" encoding="UTF-8"?>
<svg width="24px" height="24px" viewBox="0 0 24 24" version="1.1" xmlns="http://www.w3.org/2000/svg" xmlns:xlink="http://www.w3.org/1999/xlink">
    <!-- Generator: Sketch 58 (84663) - https://sketch.com -->
    <title>Icon / 24px / eye-slash-regular</title>
    <desc>Created with Sketch.</desc>
    <g id="Icon-/-24px-/-eye-slash-regular" stroke="none" stroke-width="1" fill="none" fill-rule="evenodd">
        <path d="M21.7819315,18.6978193 L3.15264793,4.13426787 C3.04945311,4.05164589 2.91766342,4.01340188 2.78627111,4.02794909 C2.65487879,4.04249631 2.53464682,4.10864312 2.45202487,4.21183797 L2.14049839,4.60093454 C2.05768072,4.70416708 2.01931889,4.83609824 2.03387002,4.96764287 C2.04842116,5.09918749 2.1146905,5.21954461 2.21806849,5.30218065 L20.8473521,19.8657321 C20.9505469,19.9483541 21.0823366,19.9865981 21.2137289,19.9720509 C21.3451212,19.9575037 21.4653532,19.8913569 21.5479751,19.788162 L21.8595016,19.3990655 C21.9423193,19.2958329 21.9806811,19.1639018 21.96613,19.0323571 C21.9515788,18.9008125 21.8853095,18.7804554 21.7819315,18.6978193 Z M11.276947,8.58785045 L15.4760125,11.8707165 C15.4068536,10.0034268 13.8841122,8.51090341 12,8.51090341 C11.7569634,8.51135853 11.5146362,8.5371469 11.276947,8.58785045 Z M12.723053,15.4124611 L8.52398752,12.129595 C8.59345793,13.9965732 10.1161994,15.4890966 12,15.4890966 C12.2430168,15.4885776 12.4853266,15.4628954 12.723053,15.4124611 L12.723053,15.4124611 Z M12,7.51401867 C15.0732087,7.51401867 17.8906542,9.22741432 19.4121496,12 C19.0391851,12.6823588 18.578351,13.3128637 18.0414331,13.8753894 L19.217134,14.7943925 C19.8717083,14.0941416 20.4262876,13.3067229 20.8651091,12.4545171 C21.0096347,12.1686293 21.0096347,11.8310591 20.8651091,11.5451713 C19.1741433,8.24890964 15.829595,6.01869156 12,6.01869156 C10.8566978,6.01869156 9.7660436,6.2367601 8.74049843,6.60467287 L10.1862928,7.73520247 C10.776324,7.60124608 11.3806854,7.51401867 12,7.51401867 Z M12,16.4859813 C8.92679126,16.4859813 6.10965729,14.7725857 4.58785043,12 C4.96130239,11.3176491 5.42266411,10.6872436 5.96012458,10.1249221 L4.78442364,9.20591899 C4.12995168,9.90606849 3.57547568,10.6933846 3.13676008,11.5454829 C2.99223451,11.8313707 2.99223451,12.1689409 3.13676008,12.4548287 C4.82616819,15.7510904 8.17071649,17.9813084 12,17.9813084 C13.1433022,17.9813084 14.2339564,17.7616823 15.2595016,17.3953271 L13.8137072,16.2651091 C13.223676,16.3987539 12.6196262,16.4859813 12,16.4859813 Z" id="eye-slash-regular" fill="#5C5C5C"></path>
    </g>
</svg>