<?xml version="1.0" encoding="UTF-8"?>
<svg width="24px" height="24px" viewBox="0 0 24 24" version="1.1" xmlns="http://www.w3.org/2000/svg" xmlns:xlink="http://www.w3.org/1999/xlink">
    <!-- Generator: Sketch 58 (84663) - https://sketch.com -->
    <title>Icon / 24px / eye-regular</title>
    <desc>Created with Sketch.</desc>
    <g id="Icon-/-24px-/-eye-regular" stroke="none" stroke-width="1" fill="none" fill-rule="evenodd">
        <path d="M12,8.11109327 C11.6319886,8.11686313 11.266701,8.17532785 10.9152778,8.2847222 C11.0778336,8.57059602 11.1643851,8.89337115 11.1666667,9.22222221 C11.1666667,10.2961092 10.2961092,11.1666667 9.22222221,11.1666667 C8.89337115,11.1643851 8.57059602,11.0778336 8.2847222,10.9152778 C7.82217168,12.5194667 8.43801606,14.2396604 9.81359976,15.1857812 C11.1891835,16.131902 13.0158501,16.0916574 14.3484299,15.085871 C15.6810097,14.0800846 16.2204955,12.334437 15.687742,10.7521763 C15.1549884,9.16991568 13.6695358,8.10607302 12,8.11109327 L12,8.11109327 Z M21.8791667,11.4930556 C19.9961806,7.8190972 16.2684028,5.3333333 12,5.3333333 C7.7315972,5.3333333 4.00277774,7.82083331 2.12083328,11.4934028 C1.95974749,11.8120485 1.95974749,12.1882987 2.12083328,12.5069444 C4.0038194,16.1809028 7.7315972,18.6666667 12,18.6666667 C16.2684028,18.6666667 19.9972223,16.1791667 21.8791667,12.5065972 C22.0402525,12.1879515 22.0402525,11.8117013 21.8791667,11.4930556 Z M12,17 C8.57465276,17 5.43437497,15.0902778 3.73854163,12 C5.43437497,8.90972221 8.57430554,6.99999997 12,6.99999997 C15.4256945,6.99999997 18.565625,8.90972221 20.2614584,12 C18.5659723,15.0902778 15.4256945,17 12,17 Z" id="eye-regular" fill="#5C5C5C"></path>
    </g>
</svg>