<?xml version="1.0" encoding="UTF-8"?>
<svg width="24px" height="24px" viewBox="0 0 24 24" version="1.1" xmlns="http://www.w3.org/2000/svg" xmlns:xlink="http://www.w3.org/1999/xlink">
    <!-- Generator: Sketch 58 (84663) - https://sketch.com -->
    <title>Icon / 24px / filter</title>
    <desc>Created with Sketch.</desc>
    <g id="Icon-/-24px-/-filter" stroke="none" stroke-width="1" fill="none" fill-rule="evenodd">
        <rect id="Background" x="0" y="0" width="24" height="24"></rect>
        <path d="M20.53125,6.84374997 L3.4987483,6.84374997 C3.23988112,6.84374997 3.0299983,6.63386716 3.0299983,6.37499997 L3.0299983,5.12499997 C3.0299983,4.86613278 3.23988112,4.65624996 3.4987483,4.65624996 L20.53125,4.65624996 C20.7901172,4.65624996 21,4.86613278 21,5.12499997 L21,6.37499997 C21,6.63386716 20.7901172,6.84374997 20.53125,6.84374997 Z M17.8003557,13.09375 L6.22964258,13.09375 C6.11110575,13.09375 6.01499915,12.8838672 6.01499915,12.625 L6.01499915,11.375 C6.01499915,11.1161328 6.11110575,10.90625 6.22964258,10.90625 L17.8003557,10.90625 C17.9188926,10.90625 18.0149992,11.1161328 18.0149992,11.375 L18.0149992,12.625 C18.0149992,12.8838672 17.9188926,13.09375 17.8003557,13.09375 Z M14.9434513,19.34375 L9.08654696,19.34375 C9.04703468,19.34375 9.01499915,19.1338672 9.01499915,18.875 L9.01499915,17.625 C9.01499915,17.3661328 9.04703468,17.15625 9.08654696,17.15625 L14.9434513,17.15625 C14.9829636,17.15625 15.0149992,17.3661328 15.0149992,17.625 L15.0149992,18.875 C15.0149992,19.1338672 14.9829636,19.34375 14.9434513,19.34375 Z" id="filter" fill="#5C5C5C"></path>
    </g>
</svg>