<?xml version="1.0" encoding="UTF-8"?>
<svg width="24px" height="24px" viewBox="0 0 24 24" version="1.1" xmlns="http://www.w3.org/2000/svg" xmlns:xlink="http://www.w3.org/1999/xlink">
    <!-- Generator: Sketch 58 (84663) - https://sketch.com -->
    <title>Icon / 24px / home-lg-regular</title>
    <desc>Created with Sketch.</desc>
    <g id="Icon-/-24px-/-home-lg-regular" stroke="none" stroke-width="1" fill="none" fill-rule="evenodd">
        <path d="M21.7656846,10.5934142 L19.7431543,8.93136914 L19.7431543,5.62218368 C19.7431543,5.46903713 19.6190045,5.34488732 19.4658579,5.34488732 L18.3566725,5.34488732 C18.2088471,5.34682338 18.0885354,5.46439034 18.0831889,5.61213168 L18.0831889,7.56741766 L13.2259965,3.57712301 C12.5059172,2.9764986 11.4594208,2.9764986 10.7393414,3.57712301 L2.19965333,10.5934142 C2.08684938,10.6878215 2.01617184,10.8231758 2.00317085,10.9696969 C1.99016986,11.1162181 2.03591054,11.2619023 2.13032924,11.3746967 L2.48526858,11.8010399 C2.68183452,12.0357182 3.03137299,12.0667469 3.26620446,11.870364 L4.21837084,11.0887348 L4.21837084,13.1091854 L4.20762561,13.1091854 L4.20762561,20.3188909 C4.21009635,20.6255065 4.4590595,20.8729232 4.76568454,20.8734836 L19.1923744,20.8734836 C19.4986675,20.8734836 19.7469671,20.625184 19.7469671,20.3188909 L19.7469671,11.0887348 L20.7001734,11.8717504 C20.9350048,12.0681334 21.2845433,12.0371047 21.4811092,11.8024263 L21.8367418,11.3760832 C21.9313932,11.2629922 21.9771044,11.1168599 21.9637704,10.9699904 C21.9504363,10.8231209 21.8791553,10.6876101 21.7656846,10.5934142 Z M18.0831889,10.8908146 L18.0759099,10.8908146 L18.0759099,19.2097054 L14.2010399,19.2097054 L14.2010399,14.2183709 C14.2010399,13.6057847 13.7044406,13.1091854 13.0918544,13.1091854 L10.8734835,13.1091854 C10.2608973,13.1091854 9.76429808,13.6057847 9.76429808,14.2183709 L9.76429808,19.2097054 L5.87140378,19.2097054 L5.87140378,9.86759098 L5.88214902,9.85892547 L5.88214902,9.72027728 L11.982669,4.70883879 L18.0831889,9.72166377 L18.0831889,10.8908146 Z" id="home-lg-regular" fill="#5C5C5C"></path>
    </g>
</svg>