<?xml version="1.0" encoding="UTF-8"?>
<svg width="24px" height="24px" viewBox="0 0 24 24" version="1.1" xmlns="http://www.w3.org/2000/svg" xmlns:xlink="http://www.w3.org/1999/xlink">
    <!-- Generator: Sketch 58 (84663) - https://sketch.com -->
    <title>Icon / 24px / info-circle-regular</title>
    <desc>Created with Sketch.</desc>
    <g id="Icon-/-24px-/-info-circle-regular" stroke="none" stroke-width="1" fill="none" fill-rule="evenodd">
        <path d="M12,2.31249995 C6.65011716,2.31249995 2.31249995,6.65167966 2.31249995,12 C2.31249995,17.3514453 6.65011716,21.6875 12,21.6875 C17.3498828,21.6875 21.6875,17.3514453 21.6875,12 C21.6875,6.65167966 17.3498828,2.31249995 12,2.31249995 Z M12,19.8125 C7.68234373,19.8125 4.18749996,16.3191016 4.18749996,12 C4.18749996,7.68378904 7.68249998,4.18749996 12,4.18749996 C16.3160547,4.18749996 19.8125,7.68246092 19.8125,12 C19.8125,16.3175781 16.3191016,19.8125 12,19.8125 Z M12,6.60937497 C12.9060938,6.60937497 13.640625,7.34390623 13.640625,8.24999998 C13.640625,9.15609374 12.9060938,9.89062499 12,9.89062499 C11.0939062,9.89062499 10.359375,9.15609374 10.359375,8.24999998 C10.359375,7.34390623 11.0939062,6.60937497 12,6.60937497 Z M14.1875,16.53125 C14.1875,16.7901172 13.9776172,17 13.71875,17 L10.28125,17 C10.0223828,17 9.81249999,16.7901172 9.81249999,16.53125 L9.81249999,15.59375 C9.81249999,15.3348828 10.0223828,15.125 10.28125,15.125 L10.75,15.125 L10.75,12.625 L10.28125,12.625 C10.0223828,12.625 9.81249999,12.4151172 9.81249999,12.15625 L9.81249999,11.21875 C9.81249999,10.9598828 10.0223828,10.75 10.28125,10.75 L12.78125,10.75 C13.0401172,10.75 13.25,10.9598828 13.25,11.21875 L13.25,15.125 L13.71875,15.125 C13.9776172,15.125 14.1875,15.3348828 14.1875,15.59375 L14.1875,16.53125 Z" id="info-circle-regular" fill="#5C5C5C"></path>
    </g>
</svg>