<?xml version="1.0" encoding="UTF-8"?>
<svg width="24px" height="24px" viewBox="0 0 24 24" version="1.1" xmlns="http://www.w3.org/2000/svg" xmlns:xlink="http://www.w3.org/1999/xlink">
    <!-- Generator: Sketch 58 (84663) - https://sketch.com -->
    <title>Icon / 24px / line-chart</title>
    <desc>Created with Sketch.</desc>
    <g id="Icon-/-24px-/-line-chart" stroke="none" stroke-width="1" fill="none" fill-rule="evenodd">
        <rect id="Background" x="0" y="0" width="24" height="24"></rect>
        <g transform="translate(0.000000, 1.000000)">
            <rect id="Background" x="0" y="0" width="24" height="21"></rect>
            <path d="M12.527962,11.375 L16.4903916,14.2881601 L19.98487,12.2838828 C20.4738757,12.0034108 21.0958692,12.139389 21.4232265,12.5983316 C21.7089165,12.9988581 21.6158231,13.5551466 21.2152966,13.8408366 C21.1890285,13.8595733 21.1617618,13.8768689 21.133617,13.8926471 L16.4903916,16.4956755 L12.9108715,13.8823121 L10.0949348,18.6481056 L6.6150142,15.5016914 L3.97931555,17.8624385 C3.59036628,18.2108133 2.99390258,18.1828909 2.6392001,17.7997034 C2.31030397,17.4443947 2.3317156,16.8897371 2.68702431,16.560841 C2.70219271,16.5468001 2.71785294,16.5333001 2.73397563,16.5203663 L6.6150142,13.406946 L9.60195026,16.0742227 L12.527962,11.375 Z M21.4598649,3.25518062 C21.757287,3.6816543 21.65267,4.26848778 21.2261963,4.56590988 C21.2254304,4.56644401 21.2246637,4.56697701 21.2238962,4.56750886 L14.7821313,9.03155499 L9.88817604,7.34734002 L4.0013593,11.5563617 C3.59118566,11.8496322 3.02683429,11.7916486 2.68486399,11.4210999 L2.64171134,11.374341 C2.33690615,11.0440633 2.35755569,10.5292269 2.68783339,10.2244217 C2.71778961,10.1967759 2.74978074,10.1714199 2.78353664,10.1485681 L9.77929324,5.41262283 L14.5409557,6.88439951 L20.1426762,3.01713564 C20.572426,2.72044895 21.1611429,2.82684304 21.4598649,3.25518062 Z" id="Combined-Shape" fill="#5C5C5C" fill-rule="evenodd"></path>
        </g>
    </g>
</svg>