<?xml version="1.0" encoding="UTF-8"?>
<svg width="24px" height="24px" viewBox="0 0 24 24" version="1.1" xmlns="http://www.w3.org/2000/svg" xmlns:xlink="http://www.w3.org/1999/xlink">
    <!-- Generator: Sketch 58 (84663) - https://sketch.com -->
    <title>Icon / 24px / lock-regular</title>
    <desc>Created with Sketch.</desc>
    <g id="Icon-/-24px-/-lock-regular" stroke="none" stroke-width="1" fill="none" fill-rule="evenodd">
        <rect id="Background" x="0" y="0" width="24" height="24"></rect>
        <path d="M19.0714286,9.50001129 L17.7857143,9.50001129 L17.7857143,7.67970043 C17.7857143,4.57032824 15.2142857,2.00783056 12.0160714,2 C8.81785714,1.99220557 6.21428571,4.51954704 6.21428571,7.62501298 L6.21428571,9.50001129 L4.92857143,9.50001129 C3.86383929,9.50001129 3,10.3398543 3,11.3750096 L3,20.1250017 C3,21.160157 3.86383929,22 4.92857143,22 L19.0714286,22 C20.1361607,22 21,21.160157 21,20.1250017 L21,11.3750096 C21,10.3398543 20.1361607,9.50001129 19.0714286,9.50001129 Z M8.14285714,7.62501298 C8.14285714,5.5586086 9.87455357,3.87501637 12,3.87501637 C14.1254464,3.87501637 15.8571429,5.5586086 15.8571429,7.62501298 L15.8571429,9.50001129 L8.14285714,9.50001129 L8.14285714,7.62501298 Z M19.0714286,20.1250017 L4.92857143,20.1250017 L4.92857143,11.3750096 L19.0714286,11.3750096 L19.0714286,20.1250017 Z" id="lock-regular" fill="#5C5C5C"></path>
    </g>
</svg>