<?xml version="1.0" encoding="UTF-8"?>
<svg width="24px" height="24px" viewBox="0 0 24 24" version="1.1" xmlns="http://www.w3.org/2000/svg" xmlns:xlink="http://www.w3.org/1999/xlink">
    <!-- Generator: Sketch 58 (84663) - https://sketch.com -->
    <title>Icon / 24px / lock-open-regular</title>
    <desc>Created with Sketch.</desc>
    <g id="Icon-/-24px-/-lock-open-regular" stroke="none" stroke-width="1" fill="none" fill-rule="evenodd">
        <rect id="Background" x="0" y="0" width="24" height="24"></rect>
        <path d="M17.0104167,3 C14.25,2.99298501 12,5.26759233 12,8.06251169 L12,9.75001016 L3.66666667,9.75001016 C2.74652778,9.75001016 2,10.5058689 2,11.4375086 L2,19.3125015 C2,20.2441413 2.74652778,21 3.66666667,21 L15.8888889,21 C16.8090278,21 17.5555556,20.2441413 17.5555556,19.3125015 L17.5555556,11.4375086 C17.5555556,10.5058689 16.8090278,9.75001016 15.8888889,9.75001016 L13.6666667,9.75001016 L13.6666667,8.10469915 C13.6666667,6.24845082 15.1284722,4.70509284 16.9652778,4.68751473 C18.8194444,4.666421 20.3333333,6.18868525 20.3333333,8.06251169 L20.3333333,10.0312599 C20.3333333,10.4988376 20.7048611,10.8750091 21.1666667,10.8750091 C21.6284722,10.8750091 22,10.4988376 22,10.0312599 L22,8.11173039 C22,5.31329542 19.7777778,3.0070475 17.0104167,3 Z M15.8888889,11.4375086 L15.8888889,19.3125015 L3.66666667,19.3125015 L3.66666667,11.4375086 L15.8888889,11.4375086 Z" id="lock-open-regular" fill="#5C5C5C"></path>
    </g>
</svg>