<?xml version="1.0" encoding="UTF-8"?>
<svg width="24px" height="24px" viewBox="0 0 24 24" version="1.1" xmlns="http://www.w3.org/2000/svg" xmlns:xlink="http://www.w3.org/1999/xlink">
    <!-- Generator: Sketch 58 (84663) - https://sketch.com -->
    <title>Icon / 24px / lock-off</title>
    <desc>Created with Sketch.</desc>
    <g id="Icon-/-24px-/-lock-off" stroke="none" stroke-width="1" fill="none" fill-rule="evenodd">
        <rect id="Background" x="0" y="0" width="24" height="24"></rect>
        <path d="M4.22182541,3.80761184 L21.8994949,21.4852814 L20.4852814,22.8994949 L19.5312804,21.9463176 C19.431058,21.9701734 19.3277671,21.9864091 19.222095,21.9943564 L19.0714286,22 L4.92857143,22 C3.91454082,22 3.08272595,21.2382376 3.00580487,20.2714828 L3,20.1250017 L3,11.3750096 C3,10.3891474 3.7835277,9.58043922 4.77790504,9.50565491 L4.92857143,9.50001129 L6.21428571,9.50001129 L6.21361184,8.627 L2.80761184,5.22182541 L4.22182541,3.80761184 Z M8.96161184,11.375 L4.92857143,11.3750096 L4.92857143,20.1250017 L17.7106118,20.125 L8.96161184,11.375 Z M12.0160714,2 C15.1399086,2.00764845 17.665774,4.45252395 17.7815666,7.46368005 L17.7857143,7.67970043 L17.7857143,9.50001129 L19.0714286,9.50001129 C20.0854592,9.50001129 20.9172741,10.2617736 20.9941951,11.2285285 L21,11.3750096 L21,17.848 L19.071,15.914 L19.0714286,11.3750096 L14.545,11.375 L12.676,9.5 L15.8571429,9.50001129 L15.8571429,7.62501298 C15.8571429,5.5586086 14.1254464,3.87501637 12,3.87501637 C10.6493103,3.87501637 9.45763308,4.55492067 8.76833269,5.58090326 L7.40331025,4.2132192 C8.46445342,2.86531925 10.1377038,1.99542219 12.0160714,2 Z" id="Combined-Shape" fill="#5C5C5C"></path>
    </g>
</svg>