<svg height="24" viewBox="0 0 24 24" width="24" xmlns="http://www.w3.org/2000/svg"><g fill="none" fill-rule="evenodd"><path d="m0 0h24v24h-24z"/><g fill="#5c5c5c"><path d="m5.54223701 7.76706634c.47491075-1.78223493 2.25208722-2.95389937 4.15976763-2.74246925 1.90768036.21143012 3.35853026 1.74085993 3.39594766 3.5798767.0009263.19222577-.0135076.38423758-.0431755.57435354l.0142232-.11682733-2.6829201.00023036c-1.32548343 0-2.41003871 1.03153594-2.49468235 2.33562434l-.00531768.1643757v.2642097c0 .1618404.01537834.320089.04475348.4733642l-3.43080533.0161576c-1.02158359.0035008-1.94184803-.5907706-2.32151959-1.4991638-.37967157-.90839323-.14177353-1.94673548.60013723-2.61939047.74191076-.67265498 1.83741513-.84324488 2.76359135-.43034129z"/><path d="m17.6634659 7.35770236c2.3813963-.01267192 4.3225546 1.90687217 4.3365341 4.28826184l-.0057546.2443737c-.0547792 1.0552261-.495486 2.057039-1.2430404 2.8118006-.8050585.8128202-1.9000393 1.2725353-3.0440523 1.2780105h-.201189l-1.8957747 1.9176181c-.1237218.1243932-.3101068.1621896-.4725128.0958193s-.2689727-.2238868-.2701619-.3993272l-.0068979-1.5957158-4.3364841.0206937c-1.14401298.0055015-2.24335418-.4436865-3.05617437-1.248745-.8128202-.8050585-1.27253533-1.9000393-1.27806045-3.0440524l.00575459-.2443737c.05477924-1.0552261.49548604-2.05703899 1.24304038-2.8118006.80505851-.8128202 1.9000393-1.27253533 3.04405235-1.2780105zm.1287002 1.704528h-7.4060862c-1.38071191 0-2.50000003 1.11928814-2.50000003 2.50000004v.2642097c0 1.3807119 1.11928812 2.5 2.50000003 2.5l6.168-.0002097.0000735.2003657.1899265-.2003657 1.0480862.0002097c1.3807119 0 2.5-1.1192881 2.5-2.5v-.2642097c0-1.3807119-1.1192881-2.50000004-2.5-2.50000004z"/></g></g></svg>