<?xml version="1.0" encoding="UTF-8"?>
<svg width="24px" height="24px" viewBox="0 0 24 24" version="1.1" xmlns="http://www.w3.org/2000/svg" xmlns:xlink="http://www.w3.org/1999/xlink">
    <!-- Generator: Sketch 58 (84663) - https://sketch.com -->
    <title>Icon / 24px / blue-sky-difference</title>
    <desc>Created with Sketch.</desc>
    <g id="Icon-/-24px-/-blue-sky-difference" stroke="none" stroke-width="1" fill="none" fill-rule="evenodd">
        <rect id="Background" x="0" y="0" width="24" height="24"></rect>
        <path d="M17.6634659,7.35770236 C20.0448622,7.34503044 21.9860205,9.26457453 22,11.6459642 L22,11.6459642 L21.9942454,11.8903379 C21.9394662,12.945564 21.4987594,13.9473769 20.751205,14.7021385 C19.9461465,15.5149587 18.8511657,15.9746738 17.7071527,15.980149 L17.7071527,15.980149 L17.5059637,15.980149 L15.610189,17.8977671 C15.4864672,18.0221603 15.3000822,18.0599567 15.1376762,17.9935864 C14.9752702,17.9272161 14.8687035,17.7696996 14.8675143,17.5942592 L14.8675143,17.5942592 L14.8606164,15.9985434 L10.5241323,16.0192371 C9.38011932,16.0247386 8.28077812,15.5755506 7.46795793,14.7704921 C6.79408966,14.1030587 6.36291871,13.2363549 6.23204583,12.307646 L13.1279353,12.2757416 C13.7212428,12.2949429 14.27801,12.0018387 14.5790877,11.5117978 C14.8801655,11.0217568 14.8773418,10.4132499 14.5717282,9.92579161 C14.2661146,9.43833327 13.7066493,9.14998074 13.1135435,9.1742325 L13.1087462,9.17882733 L13.0547768,9.17882733 C13.0844447,8.98871137 13.0988786,8.79669956 13.0979523,8.60447379 C13.0892166,8.1751212 13.003438,7.76264343 12.8527902,7.37987336 Z M5.54223701,7.76706634 C6.01714776,5.98483141 7.79432423,4.81316697 9.70200464,5.02459709 C11.1643016,5.18666492 12.3581785,6.12315043 12.8527902,7.37987336 L10.4827448,7.3922549 C9.33873175,7.39773007 8.24375096,7.8574452 7.43869245,8.6702654 C6.69113811,9.42502701 6.25043131,10.4268399 6.19565207,11.482066 L6.18989748,11.7264397 C6.190842,11.9220092 6.20505979,12.1161458 6.23204583,12.307646 L4.50002802,12.3159619 C3.47844443,12.3194627 2.55817999,11.7251913 2.17850843,10.8167981 C1.79883686,9.90840487 2.0367349,8.87006262 2.77864566,8.19740763 C3.52055642,7.52475265 4.61606079,7.35416275 5.54223701,7.76706634 Z" id="Combined-Shape" fill="#5C5C5C"></path>
    </g>
</svg>