<?xml version="1.0" encoding="UTF-8"?>
<svg width="24px" height="24px" viewBox="0 0 24 24" version="1.1" xmlns="http://www.w3.org/2000/svg" xmlns:xlink="http://www.w3.org/1999/xlink">
    <!-- Generator: Sketch 58 (84663) - https://sketch.com -->
    <title>Icon / 24px / long-arrow-right-regular</title>
    <desc>Created with Sketch.</desc>
    <g id="Icon-/-24px-/-long-arrow-right-regular" stroke="none" stroke-width="1" fill="none" fill-rule="evenodd">
        <path d="M14.7935547,6.52015622 L14.0269141,7.28679685 C13.84125,7.47246091 13.8442969,7.7744531 14.0336719,7.9563281 L17.1867188,10.984375 L3.71874996,10.984375 C3.45988277,10.984375 3.24999996,11.1942578 3.24999996,11.453125 L3.24999996,12.546875 C3.24999996,12.8057422 3.45988277,13.015625 3.71874996,13.015625 L17.1867188,13.015625 L14.0337109,16.0436719 C13.8442969,16.2255469 13.84125,16.5275391 14.0269531,16.7132031 L14.7935938,17.4798438 C14.9766406,17.6628907 15.2734375,17.6628907 15.4565235,17.4798438 L20.6049219,12.3314453 C20.7879688,12.1483984 20.7879688,11.8516016 20.6049219,11.6685156 L15.4564453,6.52015622 C15.2733985,6.33710935 14.9766016,6.33710935 14.7935547,6.52015622 Z" id="long-arrow-right-regular" fill="#5C5C5C"></path>
    </g>
</svg>