<?xml version="1.0" encoding="UTF-8"?>
<svg width="24px" height="24px" viewBox="0 0 24 24" version="1.1" xmlns="http://www.w3.org/2000/svg" xmlns:xlink="http://www.w3.org/1999/xlink">
    <!-- Generator: Sketch 58 (84663) - https://sketch.com -->
    <title>Icon / 24px / long-arrow-left-regular</title>
    <desc>Created with Sketch.</desc>
    <g id="Icon-/-24px-/-long-arrow-left-regular" stroke="none" stroke-width="1" fill="none" fill-rule="evenodd">
        <path d="M9.2064453,17.4798438 L9.97308593,16.7132031 C10.15875,16.5275391 10.1557031,16.2255469 9.96632811,16.0436719 L6.81328122,13.015625 L20.28125,13.015625 C20.5401172,13.015625 20.75,12.8057422 20.75,12.546875 L20.75,11.453125 C20.75,11.1942578 20.5401172,10.984375 20.28125,10.984375 L6.81328122,10.984375 L9.96628905,7.9563281 C10.1557031,7.7744531 10.15875,7.47246091 9.97304686,7.28679685 L9.20640624,6.52015622 C9.02335936,6.33710935 8.72656248,6.33710935 8.54347655,6.52015622 L3.39515621,11.6685547 C3.21210933,11.8516016 3.21210933,12.1483984 3.39515621,12.3314844 L8.54355467,17.4798828 C8.72660155,17.6628907 9.02339842,17.6628907 9.2064453,17.4798438 Z" id="long-arrow-left-regular" fill="#5C5C5C"></path>
    </g>
</svg>