<?xml version="1.0" encoding="UTF-8"?>
<svg width="24px" height="24px" viewBox="0 0 24 24" version="1.1" xmlns="http://www.w3.org/2000/svg" xmlns:xlink="http://www.w3.org/1999/xlink">
    <!-- Generator: Sketch 58 (84663) - https://sketch.com -->
    <title>Icon / 24px / minus-circle-regular</title>
    <desc>Created with Sketch.</desc>
    <g id="Icon-/-24px-/-minus-circle-regular" stroke="none" stroke-width="1" fill="none" fill-rule="evenodd">
        <path d="M7.46874998,13.09375 C7.21093748,13.09375 6.99999997,12.8828125 6.99999997,12.625 L6.99999997,11.375 C6.99999997,11.1171875 7.21093748,10.90625 7.46874998,10.90625 L16.53125,10.90625 C16.7890625,10.90625 17,11.1171875 17,11.375 L17,12.625 C17,12.8828125 16.7890625,13.09375 16.53125,13.09375 L7.46874998,13.09375 Z M21.6875,12 C21.6875,17.3515625 17.3515625,21.6875 12,21.6875 C6.64843747,21.6875 2.31249995,17.3515625 2.31249995,12 C2.31249995,6.64843747 6.64843747,2.31249995 12,2.31249995 C17.3515625,2.31249995 21.6875,6.64843747 21.6875,12 Z M19.8125,12 C19.8125,7.68359373 16.3164063,4.18749996 12,4.18749996 C7.68359373,4.18749996 4.18749996,7.68359373 4.18749996,12 C4.18749996,16.3164063 7.68359373,19.8125 12,19.8125 C16.3164063,19.8125 19.8125,16.3164063 19.8125,12 Z" id="minus-circle-regular" fill="#5C5C5C"></path>
    </g>
</svg>