<?xml version="1.0" encoding="UTF-8"?>
<svg width="24px" height="24px" viewBox="0 0 24 24" version="1.1" xmlns="http://www.w3.org/2000/svg" xmlns:xlink="http://www.w3.org/1999/xlink">
    <!-- Generator: Sketch 58 (84663) - https://sketch.com -->
    <title>Icon / 24px / mobile-android-alt-solid</title>
    <desc>Created with Sketch.</desc>
    <g id="Icon-/-24px-/-mobile-android-alt-solid" stroke="none" stroke-width="1" fill="none" fill-rule="evenodd">
        <path d="M17.05,2 L7.95,2 C6.8734375,2 6,2.83984375 6,3.875 L6,20.125 C6,21.1601562 6.8734375,22 7.95,22 L17.05,22 C18.1265625,22 19,21.1601562 19,20.125 L19,3.875 C19,2.83984375 18.1265625,2 17.05,2 Z M15,19.625 C15,19.83125 14.775,20 14.5,20 L10.5117783,20 C10.2367783,20 10.0117783,19.83125 10.0117783,19.625 L10.0117783,19.375 C10.0117783,19.16875 10.2367783,19 10.5117783,19 L14.5,19 C14.775,19 15,19.16875 15,19.375 L15,19.625 Z M17,16.5357143 C17,16.7910714 16.7830357,17 16.5178571,17 L8.48214286,17 C8.21696429,17 8,16.7910714 8,16.5357143 L8,4.46428571 C8,4.20892857 8.21696429,4 8.48214286,4 L16.5178571,4 C16.7830357,4 17,4.20892857 17,4.46428571 L17,16.5357143 Z" id="Shape" fill="#5C5C5C" fill-rule="nonzero"></path>
    </g>
</svg>