<?xml version="1.0" encoding="UTF-8"?>
<svg width="24px" height="24px" viewBox="0 0 24 24" version="1.1" xmlns="http://www.w3.org/2000/svg" xmlns:xlink="http://www.w3.org/1999/xlink">
    <!-- Generator: Sketch 58 (84663) - https://sketch.com -->
    <title>Icon / 24px / paper-airplane</title>
    <desc>Created with Sketch.</desc>
    <g id="Icon-/-24px-/-paper-airplane" stroke="none" stroke-width="1" fill="none" fill-rule="evenodd">
        <rect id="Background" x="0" y="0" width="24" height="24"></rect>
        <path d="M20.1251488,2.16899299 L2.624471,12.2622623 C1.72599871,12.7817688 1.81584594,14.1059244 2.77291425,14.5004369 L8.24968885,16.765954 L8.24968885,20.7501392 C8.24968885,21.9297706 9.72630854,22.4414649 10.4646184,21.5430702 L12.835804,18.660395 L17.7734952,20.6993604 C18.5196178,21.0079395 19.3634005,20.5353057 19.4844989,19.7345626 L21.9845958,3.44236984 C22.1447582,2.39945076 21.0236211,1.64948648 20.1251488,2.16899299 Z M10,21 L10,18 L12,18.7601351 L10,21 Z M17.8531498,19.3768727 L9.64809546,15.9146679 L18.2780225,6.80963749 C18.4689279,6.59583734 17.7755332,6.20010379 17.5528104,6.38336106 L7.5590754,15.0037517 L3.5531226,13.311386 L20.5531226,3.37687265 L17.8531498,19.3768727 Z" id="Shape" fill="#5C5C5C"></path>
    </g>
</svg>