<?xml version="1.0" encoding="UTF-8"?>
<svg width="24px" height="24px" viewBox="0 0 24 24" version="1.1" xmlns="http://www.w3.org/2000/svg" xmlns:xlink="http://www.w3.org/1999/xlink">
    <!-- Generator: Sketch 58 (84663) - https://sketch.com -->
    <title>Icon / 24px / plus-regular</title>
    <desc>Created with Sketch.</desc>
    <g id="Icon-/-24px-/-plus-regular" stroke="none" stroke-width="1" fill="none" fill-rule="evenodd">
        <path d="M18.875,10.75 L13.25,10.75 L13.25,5.12499997 C13.25,4.77968746 12.9703125,4.49999996 12.625,4.49999996 L11.375,4.49999996 C11.0296875,4.49999996 10.75,4.77968746 10.75,5.12499997 L10.75,10.75 L5.12499997,10.75 C4.77968746,10.75 4.49999996,11.0296875 4.49999996,11.375 L4.49999996,12.625 C4.49999996,12.9703125 4.77968746,13.25 5.12499997,13.25 L10.75,13.25 L10.75,18.875 C10.75,19.2203125 11.0296875,19.5 11.375,19.5 L12.625,19.5 C12.9703125,19.5 13.25,19.2203125 13.25,18.875 L13.25,13.25 L18.875,13.25 C19.2203125,13.25 19.5,12.9703125 19.5,12.625 L19.5,11.375 C19.5,11.0296875 19.2203125,10.75 18.875,10.75 Z" id="plus-regular" fill="#5C5C5C"></path>
    </g>
</svg>