<?xml version="1.0" encoding="UTF-8"?>
<svg width="24px" height="24px" viewBox="0 0 24 24" version="1.1" xmlns="http://www.w3.org/2000/svg" xmlns:xlink="http://www.w3.org/1999/xlink">
    <!-- Generator: Sketch 58 (84663) - https://sketch.com -->
    <title>Icon / 24px / qrcode-light</title>
    <desc>Created with Sketch.</desc>
    <g id="Icon-/-24px-/-qrcode-light" stroke="none" stroke-width="1" fill="none" fill-rule="evenodd">
        <rect id="Background" x="0" y="0" width="24" height="24"></rect>
        <path d="M2,10.5714286 L10.5714286,10.5714286 L10.5714286,2 L2,2 L2,10.5714286 Z M3.42857143,3.42857143 L9.14285714,3.42857143 L9.14285714,9.14285714 L3.42857143,9.14285714 L3.42857143,3.42857143 Z M13.4285714,2 L13.4285714,10.5714286 L22,10.5714286 L22,2 L13.4285714,2 Z M20.5714286,9.14285714 L14.8571429,9.14285714 L14.8571429,3.42857143 L20.5714286,3.42857143 L20.5714286,9.14285714 Z M2,22 L10.5714286,22 L10.5714286,13.4285714 L2,13.4285714 L2,22 Z M3.42857143,14.8571429 L9.14285714,14.8571429 L9.14285714,20.5714286 L3.42857143,20.5714286 L3.42857143,14.8571429 Z M4.85714286,4.85714286 L7.71428571,4.85714286 L7.71428571,7.71428571 L4.85714286,7.71428571 L4.85714286,4.85714286 Z M19.1428571,7.71428571 L16.2857143,7.71428571 L16.2857143,4.85714286 L19.1428571,4.85714286 L19.1428571,7.71428571 Z M4.85714286,16.2857143 L7.71428571,16.2857143 L7.71428571,19.1428571 L4.85714286,19.1428571 L4.85714286,16.2857143 Z M20.5714286,13.4285714 L22,13.4285714 L22,19.1428571 L16.2857143,19.1428571 L16.2857143,17.7142857 L14.8571429,17.7142857 L14.8571429,22 L13.4285714,22 L13.4285714,13.4285714 L17.7142857,13.4285714 L17.7142857,14.8571429 L20.5714286,14.8571429 L20.5714286,13.4285714 Z M20.5714286,20.5714286 L22,20.5714286 L22,22 L20.5714286,22 L20.5714286,20.5714286 Z M17.7142857,20.5714286 L19.1428571,20.5714286 L19.1428571,22 L17.7142857,22 L17.7142857,20.5714286 Z" id="qrcode-light" fill="#5C5C5C"></path>
    </g>
</svg>