<?xml version="1.0" encoding="UTF-8"?>
<svg width="24px" height="24px" viewBox="0 0 24 24" version="1.1" xmlns="http://www.w3.org/2000/svg" xmlns:xlink="http://www.w3.org/1999/xlink">
    <!-- Generator: Sketch 58 (84663) - https://sketch.com -->
    <title>Icon / 24px / shopping-cart-regular</title>
    <desc>Created with Sketch.</desc>
    <g id="Icon-/-24px-/-shopping-cart-regular" stroke="none" stroke-width="1" fill="none" fill-rule="evenodd">
        <path d="M21.1663542,5.3333333 L7.0097222,5.3333333 L6.70673608,3.7844444 C6.63020831,3.39333329 6.28743053,3.11111107 5.88888886,3.11111107 L2.41666662,3.11111107 C2.18656245,3.11111107 1.99999995,3.29767357 1.99999995,3.52777774 L1.99999995,4.36111107 C1.99999995,4.59121524 2.18656245,4.77777774 2.41666662,4.77777774 L5.20277774,4.77777774 L7.61923609,17.128507 C7.2359722,17.5278125 6.99999995,18.0695139 6.99999995,18.6666667 C6.99999995,19.8939584 7.99493054,20.8888889 9.22222221,20.8888889 C10.4495139,20.8888889 11.4444444,19.8939584 11.4444444,18.6666667 C11.4448772,18.2764891 11.342057,17.8931446 11.1464236,17.5555556 L16.1869445,17.5555556 C15.991311,17.8931446 15.8884909,18.2764891 15.8889236,18.6666667 C15.8889236,19.8939584 16.8838542,20.8888889 18.1111459,20.8888889 C19.3384375,20.8888889 20.3333681,19.8939584 20.3333681,18.6666667 C20.3333681,18.0369445 20.071007,17.4688889 19.6501736,17.0645139 L19.6861111,16.8993403 C19.7990973,16.3798959 19.4034028,15.8888889 18.8718056,15.8888889 L9.07499999,15.8888889 L8.74895832,14.2222222 L19.5963542,14.2222222 C19.9883681,14.2222222 20.3273959,13.9489931 20.4106598,13.5659028 L21.9806598,6.34368053 C22.0935764,5.8242708 21.697882,5.3333333 21.1663542,5.3333333 Z M9.22222221,19.5 C8.76270832,19.5 8.38888887,19.1261806 8.38888887,18.6666667 C8.38888887,18.2071528 8.76270832,17.8333334 9.22222221,17.8333334 C9.6817361,17.8333334 10.0555555,18.2071528 10.0555555,18.6666667 C10.0555555,19.1261806 9.6817361,19.5 9.22222221,19.5 Z M18.1111111,19.5 C17.6515973,19.5 17.2777778,19.1261806 17.2777778,18.6666667 C17.2777778,18.2071528 17.6515973,17.8333334 18.1111111,17.8333334 C18.570625,17.8333334 18.9444445,18.2071528 18.9444445,18.6666667 C18.9444445,19.1261806 18.570625,19.5 18.1111111,19.5 Z M18.9249306,12.5555556 L8.42291665,12.5555556 L7.33576387,6.99999997 L20.1325695,6.99999997 L18.9249306,12.5555556 Z" id="shopping-cart-regular" fill="#5C5C5C"></path>
    </g>
</svg>