<?xml version="1.0" encoding="UTF-8"?>
<svg width="24px" height="24px" viewBox="0 0 24 24" version="1.1" xmlns="http://www.w3.org/2000/svg" xmlns:xlink="http://www.w3.org/1999/xlink">
    <!-- Generator: Sketch 58 (84663) - https://sketch.com -->
    <title>Icon / 24px / shopping-bag-regular</title>
    <desc>Created with Sketch.</desc>
    <g id="Icon-/-24px-/-shopping-bag-regular" stroke="none" stroke-width="1" fill="none" fill-rule="evenodd">
        <path d="M17,6.99999995 C17,4.24296871 14.7569922,1.99999995 12,1.99999995 C9.24296874,1.99999995 6.99999997,4.24296871 6.99999997,6.99999995 L3.24999996,6.99999995 L3.24999996,18.875 C3.24999996,20.6008985 4.64910153,21.9999999 6.37499997,21.9999999 L17.625,21.9999999 C19.3508985,21.9999999 20.75,20.6008985 20.75,18.875 L20.75,6.99999995 L17,6.99999995 Z M12,3.87499996 C13.723125,3.87499996 15.125,5.27687497 15.125,6.99999997 L8.87499998,6.99999997 C8.87499998,5.27687497 10.276875,3.87499996 12,3.87499996 Z M18.875,18.875 C18.875,19.5642579 18.3142578,20.125 17.625,20.125 L6.37499997,20.125 C5.68574216,20.125 5.12499997,19.5642579 5.12499997,18.875 L5.12499997,8.87499998 L6.99999997,8.87499998 L6.99999997,10.4375 C6.99999997,10.9552734 7.41972654,11.375 7.93749998,11.375 C8.45527342,11.375 8.87499998,10.9552734 8.87499998,10.4375 L8.87499998,8.87499998 L15.125,8.87499998 L15.125,10.4375 C15.125,10.9552734 15.5447266,11.375 16.0625,11.375 C16.5802735,11.375 17,10.9552734 17,10.4375 L17,8.87499998 L18.875,8.87499998 L18.875,18.875 Z" id="shopping-bag-regular" fill="#5C5C5C"></path>
    </g>
</svg>