<?xml version="1.0" encoding="UTF-8"?>
<svg width="24px" height="24px" viewBox="0 0 24 24" version="1.1" xmlns="http://www.w3.org/2000/svg" xmlns:xlink="http://www.w3.org/1999/xlink">
    <!-- Generator: Sketch 58 (84663) - https://sketch.com -->
    <title>Icon / 24px / sliders-h-regular</title>
    <desc>Created with Sketch.</desc>
    <g id="Icon-/-24px-/-sliders-h-regular" stroke="none" stroke-width="1" fill="none" fill-rule="evenodd">
        <path d="M21.375,4.81249996 L13.25,4.81249996 L13.25,3.87499996 C13.25,3.53124996 12.96875,3.24999996 12.625,3.24999996 L11.375,3.24999996 C11.03125,3.24999996 10.75,3.53124996 10.75,3.87499996 L10.75,4.81249996 L2.62499995,4.81249996 C2.28124995,4.81249996 1.99999995,5.09374997 1.99999995,5.43749997 L1.99999995,6.06249997 C1.99999995,6.40624997 2.28124995,6.68749997 2.62499995,6.68749997 L10.75,6.68749997 L10.75,7.62499998 C10.75,7.96874998 11.03125,8.24999996 11.375,8.24999996 L12.625,8.24999996 C12.96875,8.24999996 13.25,7.96874998 13.25,7.62499998 L13.25,6.68749997 L21.375,6.68749997 C21.71875,6.68749997 21.9999999,6.40624997 21.9999999,6.06249997 L21.9999999,5.43749997 C21.9999999,5.09374997 21.71875,4.81249996 21.375,4.81249996 Z M21.375,17.3125 L8.24999998,17.3125 L8.24999998,16.375 C8.24999998,16.03125 7.96874998,15.75 7.62499998,15.75 L6.37499997,15.75 C6.03124997,15.75 5.74999997,16.03125 5.74999997,16.375 L5.74999997,17.3125 L2.62499995,17.3125 C2.28124995,17.3125 1.99999995,17.59375 1.99999995,17.9375 L1.99999995,18.5625 C1.99999995,18.90625 2.28124995,19.1875 2.62499995,19.1875 L5.74999997,19.1875 L5.74999997,20.125 C5.74999997,20.46875 6.03124997,20.75 6.37499997,20.75 L7.62499998,20.75 C7.96874998,20.75 8.24999998,20.46875 8.24999998,20.125 L8.24999998,19.1875 L21.375,19.1875 C21.71875,19.1875 21.9999999,18.90625 21.9999999,18.5625 L21.9999999,17.9375 C21.9999999,17.59375 21.71875,17.3125 21.375,17.3125 Z M21.375,11.0625 L18.25,11.0625 L18.25,10.125 C18.25,9.78124999 17.96875,9.49999999 17.625,9.49999999 L16.375,9.49999999 C16.03125,9.49999999 15.75,9.78124999 15.75,10.125 L15.75,11.0625 L2.62499995,11.0625 C2.28124995,11.0625 1.99999995,11.34375 1.99999995,11.6875 L1.99999995,12.3125 C1.99999995,12.65625 2.28124995,12.9375 2.62499995,12.9375 L15.75,12.9375 L15.75,13.875 C15.75,14.21875 16.03125,14.5 16.375,14.5 L17.625,14.5 C17.96875,14.5 18.25,14.21875 18.25,13.875 L18.25,12.9375 L21.375,12.9375 C21.71875,12.9375 21.9999999,12.65625 21.9999999,12.3125 L21.9999999,11.6875 C21.9999999,11.34375 21.71875,11.0625 21.375,11.0625 Z" id="sliders-h-regular" fill="#5C5C5C"></path>
    </g>
</svg>