<?xml version="1.0" encoding="UTF-8"?>
<svg width="24px" height="24px" viewBox="0 0 24 24" version="1.1" xmlns="http://www.w3.org/2000/svg" xmlns:xlink="http://www.w3.org/1999/xlink">
    <!-- Generator: Sketch 58 (84663) - https://sketch.com -->
    <title>Icon / 24px / sort-amount-down-regular</title>
    <desc>Created with Sketch.</desc>
    <g id="Icon-/-24px-/-sort-amount-down-regular" stroke="none" stroke-width="1" fill="none" fill-rule="evenodd">
        <path d="M8.12179686,17.790625 L5.46578122,20.6032032 C5.28093747,20.7989063 4.96917965,20.7990625 4.78421871,20.6032032 L2.12824214,17.790625 C1.84832026,17.4942188 2.0557812,17 2.46902339,17 L4.18749996,17 L4.18749996,3.71874996 C4.18749996,3.45988277 4.39738277,3.24999996 4.65624996,3.24999996 L5.59374997,3.24999996 C5.85261716,3.24999996 6.06249997,3.45988277 6.06249997,3.71874996 L6.06249997,17 L7.7810156,17 C8.19457029,17 8.40148436,17.4944532 8.12179686,17.790625 Z M11.21875,7.31249998 L21.53125,7.31249998 C21.7901172,7.31249998 22.0000001,7.10261716 22.0000001,6.84374997 L22.0000001,5.90624997 C22.0000001,5.64738278 21.7901172,5.43749997 21.53125,5.43749997 L11.21875,5.43749997 C10.9598828,5.43749997 10.75,5.64738278 10.75,5.90624997 L10.75,6.84374997 C10.75,7.10261716 10.9598828,7.31249998 11.21875,7.31249998 Z M10.75,10.59375 L10.75,9.65624999 C10.75,9.3973828 10.9598828,9.18749999 11.21875,9.18749999 L19.03125,9.18749999 C19.2901172,9.18749999 19.5,9.3973828 19.5,9.65624999 L19.5,10.59375 C19.5,10.8526172 19.2901172,11.0625 19.03125,11.0625 L11.21875,11.0625 C10.9598828,11.0625 10.75,10.8526172 10.75,10.59375 Z M10.75,18.09375 L10.75,17.15625 C10.75,16.8973828 10.9598828,16.6875 11.21875,16.6875 L14.03125,16.6875 C14.2901172,16.6875 14.5,16.8973828 14.5,17.15625 L14.5,18.09375 C14.5,18.3526172 14.2901172,18.5625 14.03125,18.5625 L11.21875,18.5625 C10.9598828,18.5625 10.75,18.3526172 10.75,18.09375 Z M10.75,14.34375 L10.75,13.40625 C10.75,13.1473828 10.9598828,12.9375 11.21875,12.9375 L16.53125,12.9375 C16.7901172,12.9375 17,13.1473828 17,13.40625 L17,14.34375 C17,14.6026172 16.7901172,14.8125 16.53125,14.8125 L11.21875,14.8125 C10.9598828,14.8125 10.75,14.6026172 10.75,14.34375 Z" id="sort-amount-down-regular" fill="#5C5C5C"></path>
    </g>
</svg>