<?xml version="1.0" encoding="UTF-8"?>
<svg width="24px" height="24px" viewBox="0 0 24 24" version="1.1" xmlns="http://www.w3.org/2000/svg" xmlns:xlink="http://www.w3.org/1999/xlink">
    <!-- Generator: Sketch 58 (84663) - https://sketch.com -->
    <title>Icon / 24px / times-light</title>
    <desc>Created with Sketch.</desc>
    <g id="Icon-/-24px-/-times-light" stroke="none" stroke-width="1" fill="none" fill-rule="evenodd">
        <path d="M13.697303,12.00025 L18.8254633,6.87208975 L19.8829963,5.8145567 C20.0390012,5.65855183 20.0390012,5.40504391 19.8829963,5.24903903 L18.751461,4.11750367 C18.5954561,3.9614988 18.3419482,3.9614988 18.1859433,4.11750367 L12.00025,10.303197 L5.8145567,4.11700366 C5.65855183,3.96099878 5.40504391,3.96099878 5.24903903,4.11700366 L4.11700366,5.24853902 C3.96099878,5.40454389 3.96099878,5.65805181 4.11700366,5.81405669 L10.303197,12.00025 L4.11700366,18.1859433 C3.96099878,18.3419482 3.96099878,18.5954561 4.11700366,18.751461 L5.24853902,19.8829963 C5.40454389,20.0390012 5.65805181,20.0390012 5.81405669,19.8829963 L12.00025,13.697303 L17.1284103,18.8254633 L18.1859433,19.8829963 C18.3419482,20.0390012 18.5954561,20.0390012 18.751461,19.8829963 L19.8829963,18.751461 C20.0390012,18.5954561 20.0390012,18.3419482 19.8829963,18.1859433 L13.697303,12.00025 Z" id="times-light" fill="#5C5C5C"></path>
    </g>
</svg>