<?xml version="1.0" encoding="UTF-8"?>
<svg width="24px" height="24px" viewBox="0 0 24 24" version="1.1" xmlns="http://www.w3.org/2000/svg" xmlns:xlink="http://www.w3.org/1999/xlink">
    <!-- Generator: Sketch 58 (84663) - https://sketch.com -->
    <title>Icon / 24px / times-circle</title>
    <desc>Created with Sketch.</desc>
    <g id="Icon-/-24px-/-times-circle" stroke="none" stroke-width="1" fill="none" fill-rule="evenodd">
        <rect id="Background" x="0" y="0" width="24" height="24"></rect>
        <path d="M12,4 C7.58064516,4 4,7.58064516 4,12 C4,16.4193548 7.58064516,20 12,20 C16.4193548,20 20,16.4193548 20,12 C20,7.58064516 16.4193548,4 12,4 Z M15.9225806,14.1 C16.0741935,14.2516129 16.0741935,14.4967742 15.9225806,14.6483871 L14.6451613,15.9225806 C14.4935484,16.0741935 14.2483871,16.0741935 14.0967742,15.9225806 L12,13.8064516 L9.9,15.9225806 C9.7483871,16.0741935 9.50322581,16.0741935 9.3516129,15.9225806 L8.07741935,14.6451613 C7.92580645,14.4935484 7.92580645,14.2483871 8.07741935,14.0967742 L10.1935484,12 L8.07741935,9.9 C7.92580645,9.7483871 7.92580645,9.50322581 8.07741935,9.3516129 L9.35483871,8.07419355 C9.50645161,7.92258065 9.7516129,7.92258065 9.90322581,8.07419355 L12,10.1935484 L14.1,8.07741935 C14.2516129,7.92580645 14.4967742,7.92580645 14.6483871,8.07741935 L15.9258065,9.35483871 C16.0774194,9.50645161 16.0774194,9.7516129 15.9258065,9.90322581 L13.8064516,12 L15.9225806,14.1 Z" id="Shape" fill="#5C5C5C"></path>
    </g>
</svg>