<?xml version="1.0" encoding="UTF-8"?>
<svg width="24px" height="24px" viewBox="0 0 24 24" version="1.1" xmlns="http://www.w3.org/2000/svg" xmlns:xlink="http://www.w3.org/1999/xlink">
    <!-- Generator: Sketch 58 (84663) - https://sketch.com -->
    <title>Icon / 24px / trash-regular</title>
    <desc>Created with Sketch.</desc>
    <g id="Icon-/-24px-/-trash-regular" stroke="none" stroke-width="1" fill="none" fill-rule="evenodd">
        <path d="M21.2857143,5.125 L17.6071429,5.125 L16.0892857,2.91015625 C15.701645,2.34497719 15.0033101,1.99941157 14.25,1.99999925 L9.75,1.99999925 C8.9966899,1.99941157 8.29835496,2.34497719 7.91071429,2.91015625 L6.39285714,5.125 L2.71428571,5.125 C2.31979661,5.125 2,5.40482203 2,5.75 L2,6.375 C2,6.72017797 2.31979661,6.99999925 2.71428571,6.99999925 L3.42857143,6.99999925 L4.375,20.2421875 C4.44570983,21.2301899 5.38203547,21.9999992 6.51339286,21.9999992 L17.4866071,21.9999992 C18.6179645,21.9999992 19.5542902,21.2301899 19.625,20.2421875 L20.5714286,6.99999925 L21.2857143,6.99999925 C21.6802034,6.99999925 22,6.72017797 22,6.375 L22,5.75 C22,5.40482203 21.6802034,5.125 21.2857143,5.125 Z M9.75,3.875 L14.25,3.875 L15.1071429,5.125 L8.89285714,5.125 L9.75,3.875 Z M17.4866071,20.125 L6.51383929,20.125 L5.57633929,7 L18.4245536,7 L17.4866071,20.125 Z" id="Shape" fill="#5C5C5C"></path>
    </g>
</svg>