<?xml version="1.0" encoding="UTF-8"?>
<svg width="24px" height="24px" viewBox="0 0 24 24" version="1.1" xmlns="http://www.w3.org/2000/svg" xmlns:xlink="http://www.w3.org/1999/xlink">
    <!-- Generator: Sketch 58 (84663) - https://sketch.com -->
    <title>Icon / 24px / undo-regular</title>
    <desc>Created with Sketch.</desc>
    <g id="Icon-/-24px-/-undo-regular" stroke="none" stroke-width="1" fill="none" fill-rule="evenodd">
        <path d="M2.47619019,2 L3.57583238,2 C3.84325285,2 4.05825272,2.22371932 4.05190352,2.49541274 L3.95876865,6.46992693 C5.72718028,3.76750889 8.75444034,1.98912266 12.1901922,2 C17.6023715,2.01726781 22.0084402,6.51649949 22,12.0159726 C21.9914958,17.5314941 17.588681,22 12.158724,22 C9.6219795,22 7.30944122,21.0247182 5.56436292,19.4230658 C5.36146621,19.2368562 5.35190273,18.9165741 5.54523594,18.7201226 L6.32848944,17.9242359 C6.50698139,17.742865 6.79487804,17.7312924 6.98329063,17.9019778 C8.35765487,19.1470175 10.1704315,19.9032268 12.158724,19.9032268 C16.4572134,19.9032268 19.936497,16.3684705 19.936497,12 C19.936497,7.63218443 16.4578484,4.09678292 12.158724,4.09678292 C9.00217829,4.09678292 6.28805295,6.00331425 5.06845052,8.74605485 L10.083884,8.62472426 C10.3512251,8.61827265 10.5714234,8.83669997 10.5714234,9.10847403 L10.5714234,10.2258122 C10.5714234,10.4930298 10.3582092,10.7096829 10.0952332,10.7096829 L2.47619019,10.7096829 C2.21321416,10.7096829 2,10.4930298 2,10.2258122 L2,2.48388048 C2,2.21666287 2.21321416,2 2.47619019,2 Z" id="undo-regular" fill="#5C5C5C" fill-rule="nonzero"></path>
    </g>
</svg>