<?xml version="1.0" encoding="UTF-8"?>
<svg width="24px" height="24px" viewBox="0 0 24 24" version="1.1" xmlns="http://www.w3.org/2000/svg" xmlns:xlink="http://www.w3.org/1999/xlink">
    <!-- Generator: Sketch 58 (84663) - https://sketch.com -->
    <title>Icon / 24px / user-alt-solid</title>
    <desc>Created with Sketch.</desc>
    <g id="Icon-/-24px-/-user-alt-solid" stroke="none" stroke-width="1" fill="none" fill-rule="evenodd">
        <path d="M12,13.25 C15.1054688,13.25 17.625,10.7304688 17.625,7.625 C17.625,4.51953125 15.1054688,2 12,2 C8.89453125,2 6.375,4.51953125 6.375,7.625 C6.375,10.7304688 8.89453125,13.25 12,13.25 Z M17,14.5 L14.8476562,14.5 C13.9804688,14.8984375 13.015625,15.125 12,15.125 C10.984375,15.125 10.0234375,14.8984375 9.15234375,14.5 L7,14.5 C4.23828125,14.5 2,16.7382812 2,19.5 L2,20.125 C2,21.1601562 2.83984375,22 3.875,22 L20.125,22 C21.1601562,22 22,21.1601562 22,20.125 L22,19.5 C22,16.7382812 19.7617188,14.5 17,14.5 Z" id="Shape" fill="#5C5C5C" fill-rule="nonzero"></path>
    </g>
</svg>