<?xml version="1.0" encoding="UTF-8"?>
<svg width="24px" height="24px" viewBox="0 0 24 24" version="1.1" xmlns="http://www.w3.org/2000/svg" xmlns:xlink="http://www.w3.org/1999/xlink">
    <!-- Generator: Sketch 58 (84663) - https://sketch.com -->
    <title>Icon / 24px / user-circle-solid</title>
    <desc>Created with Sketch.</desc>
    <g id="Icon-/-24px-/-user-circle-solid" stroke="none" stroke-width="1" fill="none" fill-rule="evenodd">
        <path d="M12,2.31249995 C6.64843747,2.31249995 2.31249995,6.64843747 2.31249995,12 C2.31249995,17.3515625 6.64843747,21.6875 12,21.6875 C17.3515625,21.6875 21.6875,17.3515625 21.6875,12 C21.6875,6.64843747 17.3515625,2.31249995 12,2.31249995 Z M12,6.06249997 C13.8984375,6.06249997 15.4375,7.60156248 15.4375,9.49999999 C15.4375,11.3984375 13.8984375,12.9375 12,12.9375 C10.1015625,12.9375 8.56249998,11.3984375 8.56249998,9.49999999 C8.56249998,7.60156248 10.1015625,6.06249997 12,6.06249997 Z M12,19.5 C9.70703124,19.5 7.65234373,18.4609375 6.27734372,16.8359375 C7.01171873,15.453125 8.44921873,14.5 10.125,14.5 C10.21875,14.5 10.3125,14.515625 10.4023437,14.5429688 C10.9101562,14.7070313 11.4414062,14.8125 12,14.8125 C12.5585938,14.8125 13.09375,14.7070313 13.5976563,14.5429688 C13.6875,14.515625 13.78125,14.5 13.875,14.5 C15.5507813,14.5 16.9882813,15.453125 17.7226563,16.8359375 C16.3476563,18.4609375 14.2929688,19.5 12,19.5 Z" id="user-circle-solid" fill="#5C5C5C"></path>
    </g>
</svg>