<?xml version="1.0" encoding="UTF-8"?>
<svg width="24px" height="24px" viewBox="0 0 24 24" version="1.1" xmlns="http://www.w3.org/2000/svg" xmlns:xlink="http://www.w3.org/1999/xlink">
    <!-- Generator: Sketch 58 (84663) - https://sketch.com -->
    <title>Icon / 24px / user-astronaut-solid</title>
    <desc>Created with Sketch.</desc>
    <g id="Icon-/-24px-/-user-astronaut-solid" stroke="none" stroke-width="1" fill="none" fill-rule="evenodd">
        <path d="M5.74999997,10.75 L6.27734372,10.75 C7.24218748,12.9570313 9.43749999,14.4999999 12,14.4999999 C14.5625,14.4999999 16.7578125,12.9570313 17.7226563,10.75 L18.25,10.75 C18.59375,10.75 18.875,10.46875 18.875,10.125 L18.875,6.37499997 C18.875,6.03124997 18.59375,5.74999997 18.25,5.74999997 L17.7226563,5.74999997 C16.7578125,3.54296871 14.5625,1.99999995 12,1.99999995 C9.43749999,1.99999995 7.24218748,3.54296871 6.27734372,5.74999997 L5.74999997,5.74999997 C5.40624997,5.74999997 5.12499997,6.03124997 5.12499997,6.37499997 L5.12499997,10.125 C5.12499997,10.46875 5.40624997,10.75 5.74999997,10.75 Z M7.31249998,7.31249998 C7.31249998,6.44921872 8.15234373,5.74999997 9.18749999,5.74999997 L14.8125,5.74999997 C15.8476563,5.74999997 16.6875,6.44921872 16.6875,7.31249998 L16.6875,8.24999997 C16.6875,10.3203125 15.0078125,12 12.9375,12 L11.0625,12 C8.99218748,12 7.31249998,10.3203125 7.31249998,8.24999997 L7.31249998,7.31249998 Z M16.046875,14.5546875 C14.8789063,15.3085938 13.4921875,15.75 12,15.75 C10.5078125,15.75 9.12109374,15.3085938 7.95312498,14.5546875 C5.31640622,14.8320313 3.24999996,17.0390625 3.24999996,19.75 L3.24999996,20.125 C3.24999996,21.1601563 4.08984371,22.0000001 5.12499997,22.0000001 L8.24999996,22.0000001 L8.24999996,19.5 C8.24999996,18.8085938 8.80859373,18.25 9.49999999,18.25 L14.5,18.25 C15.1914063,18.25 15.75,18.8085938 15.75,19.5 L15.75,22.0000001 L18.875,22.0000001 C19.9101563,22.0000001 20.75,21.1601563 20.75,20.125 L20.75,19.75 C20.75,17.0390625 18.6835938,14.8320313 16.046875,14.5546875 Z M13.875,19.5 C13.53125,19.5 13.25,19.78125 13.25,20.125 C13.25,20.46875 13.53125,20.75 13.875,20.75 C14.21875,20.75 14.5,20.46875 14.5,20.125 C14.5,19.78125 14.21875,19.5 13.875,19.5 Z M10.125,19.5 C9.78124999,19.5 9.49999999,19.78125 9.49999999,20.125 L9.49999999,22 L10.75,22 L10.75,20.125 C10.75,19.78125 10.46875,19.5 10.125,19.5 Z" id="user-astronaut-solid" fill="#5C5C5C"></path>
    </g>
</svg>