<?xml version="1.0" encoding="UTF-8"?>
<svg width="24px" height="24px" viewBox="0 0 24 24" version="1.1" xmlns="http://www.w3.org/2000/svg" xmlns:xlink="http://www.w3.org/1999/xlink">
    <!-- Generator: Sketch 58 (84663) - https://sketch.com -->
    <title>Icon / 24px / wordpress-simple-brands</title>
    <desc>Created with Sketch.</desc>
    <g id="Icon-/-24px-/-wordpress-simple-brands" stroke="none" stroke-width="1" fill="none" fill-rule="evenodd">
        <path d="M12,2.31249995 C6.66015622,2.31249995 2.31249995,6.65624997 2.31249995,12 C2.31249995,17.3398438 6.66015622,21.6875 12,21.6875 C17.3398438,21.6875 21.6875,17.3398438 21.6875,12 C21.6875,6.65624997 17.3398438,2.31249995 12,2.31249995 Z M3.28906246,12 C3.28906246,10.7382812 3.55859371,9.53906249 4.04296871,8.45703123 L8.19921873,19.8398438 C5.29296872,18.4257813 3.28906246,15.4453125 3.28906246,12 Z M12,20.7109375 C11.1445312,20.7109375 10.3203125,20.5859375 9.53906249,20.3554688 L12.1523438,12.7617188 L14.828125,20.0976563 C14.8476563,20.140625 14.8671875,20.1796875 14.890625,20.21875 C13.9882813,20.5351563 13.015625,20.7109375 12,20.7109375 L12,20.7109375 Z M13.1992188,7.91796873 C13.7226562,7.89062498 14.1953125,7.83593748 14.1953125,7.83593748 C14.6640625,7.78124998 14.609375,7.08984373 14.140625,7.11718748 C14.140625,7.11718748 12.7304688,7.22656248 11.8203125,7.22656248 C10.9648437,7.22656248 9.52734374,7.11718748 9.52734374,7.11718748 C9.05859374,7.08984373 9.00390624,7.80859373 9.47265624,7.83593748 C9.47265624,7.83593748 9.91796874,7.89062498 10.3867187,7.91796873 L11.7421875,11.6367187 L9.83593749,17.3515625 L6.66406247,7.91796873 C7.18749998,7.89062498 7.66015623,7.83593748 7.66015623,7.83593748 C8.12890623,7.78124998 8.07421873,7.08984373 7.60546873,7.11718748 C7.60546873,7.11718748 6.19531247,7.22656248 5.28515622,7.22656248 C5.12109372,7.22656248 4.92968746,7.22265623 4.72265621,7.21484373 C6.28124997,4.85156246 8.95703123,3.28906246 12,3.28906246 C14.265625,3.28906246 16.3320313,4.15624996 17.8828125,5.57421872 C17.84375,5.57031247 17.8085938,5.56640622 17.7695313,5.56640622 C16.9140625,5.56640622 16.3085938,6.31249997 16.3085938,7.11328123 C16.3085938,7.83203123 16.7226562,8.43749998 17.1640625,9.15624999 C17.4960938,9.73437499 17.8828125,10.4804687 17.8828125,11.5585937 C17.8828125,12.3046875 17.5976563,13.1679688 17.21875,14.375 L16.3515625,17.2773438 L13.1992188,7.91796873 Z M16.3789063,19.5273438 L19.0390625,11.8359375 C19.5351563,10.59375 19.703125,9.60156249 19.703125,8.71484373 C19.703125,8.39453123 19.6835938,8.09765623 19.6445313,7.82031248 C20.3242188,9.06249999 20.7109375,10.484375 20.7109375,12 C20.7109375,15.2148438 18.96875,18.0195313 16.3789063,19.5273438 L16.3789063,19.5273438 Z" id="wordpress-simple-brands" fill="#5C5C5C"></path>
    </g>
</svg>