<?xml version="1.0" standalone="no"?>
<!DOCTYPE svg PUBLIC "-//W3C//DTD SVG 1.1//EN" "http://www.w3.org/Graphics/SVG/1.1/DTD/svg11.dtd">
<svg xmlns="http://www.w3.org/2000/svg">
<metadata>Generated by Fontastic.me</metadata>
<defs>
<font id="capicons" horiz-adv-x="512">
<font-face font-family="capicons" units-per-em="512" ascent="480" descent="-32"/>
<missing-glyph horiz-adv-x="512" />

<glyph glyph-name="icon-arrow-down" unicode="&#97;" d="M249 47l0 446 20 0 0-446 138 139 14-14-162-162 0 0 0 0-162 162 14 14z"/>
<glyph glyph-name="icon-arrow-left" unicode="&#98;" d="M56 260l446 0 0-20-446 0 138-138-13-14-162 162 0 0 0 0 162 162 13-14z"/>
<glyph glyph-name="icon-arrow-right" unicode="&#99;" d="M463 251l-463 0 0 20 464 0-145 145 15 14 168-168 0-1 0 0-168-168-15 14z"/>
<glyph glyph-name="icon-arrow-up" unicode="&#100;" d="M261 473l0-463-20 0 0 463-145-144-14 15 168 168 1 0 0 0 168-168-14-15z"/>
<glyph glyph-name="icon-atom" unicode="&#101;" d="M445 151c-8-15-49-17-109 2 3 19 5 38 7 58 16 11 32 23 46 34 10-9 18-17 26-26 31-35 36-58 30-68m-101 130c9-6 17-12 25-18-8-7-16-13-25-19 1 6 1 12 1 19 0 6 0 12-1 18m66 105c19 0 31-4 35-12 6-9 1-32-30-67-8-9-16-18-26-27-14 12-30 23-46 35-2 19-4 39-7 57 30 10 55 14 74 14m-92-161c-10-6-21-13-32-19-11-6-22-12-33-18-10 6-21 11-32 18-11 6-22 13-32 19 0 12-1 25-1 38 0 13 1 25 1 37 10 7 21 13 32 20 11 6 22 12 32 17 11-5 22-11 33-17 11-7 22-13 32-20 0-12 1-24 1-37 0-13-1-26-1-38m-7-63c-9 4-19 8-28 12 5 3 11 6 16 9 6 3 11 6 16 10-1-11-2-21-4-31m-58-122c-17 0-39 35-52 96 17 6 35 14 52 23 18-9 36-16 53-23-13-61-35-96-53-96m-61 153c5-4 10-7 16-10 5-3 11-6 16-9-9-4-19-8-28-12-2 10-3 20-4 31m4 170c9-3 18-7 28-12-5-3-11-6-16-9-6-3-11-6-16-9 1 10 2 20 4 30m57 123c18 0 40-35 53-97-17-6-35-14-53-23-17 9-35 17-52 23 13 62 35 97 52 97m62-154c-5 4-10 7-16 10-5 3-11 6-16 9 10 5 19 9 28 12 2-10 3-20 4-31m-151-17c-16-12-32-23-46-35-10 9-18 18-26 27-31 35-36 58-30 67 3 7 14 12 35 12 10 0 23-1 38-4 11-3 24-6 36-10-3-19-5-38-7-57m-1-71c-9 6-17 12-25 19 8 6 16 12 25 18-1-6-1-12-1-18 0-7 0-13 1-19m-28-100c-46-10-68-3-73 7-6 10-1 33 30 68 8 9 16 17 26 26 14-11 30-23 46-34 2-20 4-39 7-57-12-5-25-8-36-10m273 119c10 8 19 18 27 26 35 41 47 74 33 98-18 32-73 31-137 11-15 65-41 114-78 114-36 0-62-49-77-114-12 4-24 7-36 9-52 11-87 4-101-20-14-24-2-57 33-98 8-8 17-18 27-26-10-9-19-18-27-27-35-40-47-74-33-98 9-16 29-25 58-25 12 0 27 2 43 5 12 2 24 6 36 10 15-66 41-115 77-115 37 0 63 49 78 115 29-9 56-15 79-15 27 0 48 8 58 25 14 24 2 58-33 98-8 9-17 18-27 27"/>
<glyph glyph-name="icon-bell" unicode="&#102;" d="M314 89c0 0 0-1 0-1 0-1 0-1 0-2 0-33-27-60-61-60-33 0-60 27-60 60 0 1 0 1 0 2 0 0 0 1 0 1l-19 2c0-1 0-2 0-3 0-1 0-1 0-2 0-44 35-79 79-79 44 0 80 35 80 79 0 1 0 1 0 2 0 1 0 2 0 3z m-9 348l0 14c0 28-23 52-52 52-28 0-51-24-51-52l0-14 19 0 0 14c0 18 14 33 32 33 18 0 33-15 33-33l0-14z m101-263c-24 32-36 71-36 111l0 26c0 64-52 116-117 116-64 0-117-52-117-116l0-26c0-40-12-79-35-111l-31-43c0 0 1-1 1-1 8-5 18-9 31-14 36-12 86-20 151-20 65 0 115 8 152 20 12 5 22 9 30 14 1 0 1 1 1 1z m-288 137c0 75 60 135 135 135 75 0 136-60 136-135l0-26c0-36 11-71 32-100l36-51c3-4 2-9-1-13-7-6-21-14-45-23-39-13-91-21-158-21-67 0-119 8-158 21-23 9-38 17-45 23-3 4-4 9-1 13l36 51c21 29 33 64 33 100z"/>
<glyph glyph-name="icon-cart" unicode="&#103;" d="M121 196c2-14 14-24 29-24l271 0c14 0 26 10 28 24l31 185c0 2-1 4-3 4l-388 0z m356 209c14 0 25-13 23-27l-31-185c-4-24-25-41-48-41l-271 0c-24 0-45 17-49 41l-44 267c0 2-2 3-3 3l-54 0 0 19 54 0c11 0 20-8 22-19l10-58z m-391 0l-2 0 0-20 5 0z m124-334c0 16-13 29-29 29-16 0-29-13-29-29 0-16 13-29 29-29 16 0 29 13 29 29z m20 0c0-27-22-49-49-49-27 0-48 22-48 49 0 27 21 49 48 49 27 0 49-22 49-49z m188 0c0 16-13 29-29 29-16 0-29-13-29-29 0-16 13-29 29-29 16 0 29 13 29 29z m19 0c0-27-21-49-48-49-27 0-49 22-49 49 0 27 22 49 49 49 27 0 48-22 48-49z"/>
<glyph glyph-name="icon-chat" unicode="&#104;" d="M410 66c-3 3-6 4-10 4-2 0-5 0-7-2-22-14-47-21-74-21-77 0-140 64-140 142 0 78 63 142 140 142 78 0 141-64 141-142 0-28-8-56-24-79-1-3-2-6-2-9 4-21 13-39 28-53-19-3-40 3-52 18m83-10c-16 10-28 26-32 44 16 27 25 57 25 89 0 92-75 168-167 168-91 0-166-76-166-168 0-92 75-168 166-168 28 0 55 7 79 20 14-12 33-20 52-20 16 0 31 5 44 13 4 3 6 7 6 12 0 4-3 8-7 10m-410 175c-11-12-28-18-45-16 13 13 21 29 24 48 1 3 0 6-2 9-14 21-22 46-22 72 0 71 58 129 128 129 58 0 109-39 124-95l24 7c-18 67-79 113-148 113-84 0-153-69-153-154 0-29 8-58 23-82-4-16-15-30-29-39-4-2-7-6-7-11 0-4 2-9 6-11 12-8 26-12 40-12 18 0 35 6 49 18 9-5 19-9 30-12l7 25c-12 3-23 8-33 14-5 3-12 2-16-3"/>
<glyph glyph-name="icon-compass" unicode="&#105;" d="M474 262c0 125-101 226-225 226-124 0-225-101-225-226 0-124 101-225 225-225 124 0 225 101 225 225z m24 0c0-137-111-249-249-249-138 0-249 112-249 249 0 138 111 250 249 250 138 0 249-112 249-250z m-310 54c2 3 4 6 7 7l158 59c10 4 19-5 16-15l-59-158c-2-3-4-6-7-7l-158-60c-10-3-19 6-16 16z m106-91l-7-8 2 6z m-133-50l128 48 48 127-128-48z"/>
<glyph glyph-name="icon-cross" unicode="&#106;" d="M252 276l-236 236-16-16 236-236-236-236 16-16 236 236 236-236 16 16-236 236 236 236-16 16z"/>
<glyph glyph-name="icon-ellips-vert" unicode="&#107;" d="M256 410c-28 0-51 23-51 51 0 28 23 51 51 51 28 0 51-23 51-51 0-28-23-51-51-51z m0-205c-28 0-51 23-51 51 0 28 23 51 51 51 28 0 51-23 51-51 0-28-23-51-51-51z m0-205c-28 0-51 23-51 51 0 28 23 51 51 51 28 0 51-23 51-51 0-28-23-51-51-51z"/>
<glyph glyph-name="icon-email" unicode="&#108;" d="M432 81c23 0 42 18 42 41l0 272c0 23-19 41-42 41l-352 0c-23 0-42-18-42-41l0-272c0-23 19-41 42-41z m0-26l-352 0c-37 0-67 30-67 67l0 272c0 37 30 67 67 67l352 0c37 0 67-30 67-67l0-272c0-37-30-67-67-67z m-400 350l-13-22 237-140 237 140-13 22-224-132z"/>
<glyph glyph-name="icon-globe" unicode="&#109;" d="M481 263c0 124-101 224-225 224-124 0-225-100-225-224 0-123 101-223 225-223 124 0 225 100 225 223z m21 0c0-135-110-244-246-244-136 0-246 109-246 244 0 135 110 245 246 245 136 0 246-110 246-245z m-132 0c0 125-53 224-114 224-61 0-114-99-114-224 0-124 53-223 114-223 61 0 114 99 114 223z m21 0c0-134-59-244-135-244-76 0-135 110-135 244 0 135 59 245 135 245 76 0 135-110 135-245z m-136 87c0 0 1 0 1 0 74 0 146 30 174 74l-17 11c-24-37-89-65-157-65 0 0-1 0-1 0l0 128-20 0 0-127c-60 5-115 30-136 64l-17-11c25-40 86-68 153-73l0-66-215 0 0-21 215 0 0-88c-67-5-128-33-153-73l17-11c21 33 76 59 136 64l0-127 20 0 0 128c0 0 1 0 1 0 68 0 133-28 157-65l17 11c-28 44-100 74-174 74 0 0-1 0-1 0l0 87 237 0 0 21-237 0z"/>
<glyph glyph-name="icon-help" unicode="&#110;" d="M150 67l77 97-19 15-77-97z m154 290l77 96-19 15-77-96z m56-60l96 77-15 19-96-77z m-208-58l-96-78 15-19 96 78z m323 29c0 121-98 220-219 220-121 0-219-99-219-220 0-122 98-220 219-220 121 0 219 98 219 220z m25 0c0-135-109-245-244-245-135 0-244 110-244 245 0 135 109 244 244 244 135 0 244-109 244-244z m-161 0c0 46-37 83-83 83-46 0-83-37-83-83 0-46 37-84 83-84 46 0 83 38 83 84z m22 2c0-59-48-108-107-108-60 0-108 49-108 108 0 60 48 108 108 108 59 0 107-48 107-108z m95-109l-96 78-15-19 96-78z m-289 155l-96 77-15-19 96-77z m60 56l-77 96-19-15 77-96z m58-208l77-97 19 15-77 97z"/>
<glyph glyph-name="icon-home" unicode="&#111;" d="M292 486l183-149c6-4 10-12 10-20l0-280c0-14-12-26-26-26l-123 0c-14 0-25 12-25 26l0 178c0 0-1 1-2 1l-109 0c-1 0-1-1-1-1l0-178c0-14-12-26-26-26l-123 0c-14 0-26 12-26 26l0 280c0 8 4 16 10 20l183 149c22 18 53 18 75 0z m-243-167c0-1 0-282 0-282 0-1 0-1 1-1l123 0c1 0 1 0 1 1l0 178c0 14 12 26 26 26l109 0c14 0 26-12 26-26l0-178c0-1 1-1 1-1l123 0c1 0 1 0 1 1l0 280c0 1-183 150-183 150-13 11-32 11-45 0z"/>
<glyph glyph-name="icon-lost-data" unicode="&#112;" d="M490 84c-1 3-2 5-4 6-87 43-117 165-134 279 0 2 0 5-1 7-1 9-2 17-5 26-12 36-36 66-68 86-32 20-70 28-107 22-37-6-71-25-96-53-24-29-38-65-38-103 0-23 1-45 3-68l-10 0c-5 0-8-3-8-7l0-136c0-4 3-7 8-7l33 0c10-44 24-88 40-131 1-3 3-4 6-5 0 0 1 0 1 0 2 0 4 1 6 2 25 26 47 38 66 37 10 0 22-5 33-10 16-7 31-13 47-11 14 3 27 12 39 21 11 9 22 17 32 18 12 2 25-3 39-9 12-5 25-11 39-11 23-2 48 12 77 41 2 2 2 4 2 6z m-453 187l143 0c4 0 8 3 8 8l0 1c0 3 2 6 6 6l48 0c3 0 6-3 6-6l0-8c0 0-1 0-1 0-7 1-16 2-25-1-9-4-17-12-19-20-1-5-1-10 2-15 4-7 15-16 43-24l0-61-211 0z m374-219c-10 0-22 5-34 10-15 6-30 13-46 10-14-2-27-11-39-21-11-8-22-16-32-18-12-1-25 4-39 10-12 5-25 11-39 11-21 1-43-10-69-33-13 38-25 77-34 115l176 0c5 0 8 3 8 7l0 66c8-2 16-2 24-2 10 0 20 1 31 4 4 1 6 5 5 9-1 4-5 7-9 6-19-5-35-5-57 0-24 6-36 13-39 18-1 1-1 2 0 2 0 4 5 8 10 10 5 2 11 2 17 1 3-1 7-1 10-1 0 0 0 0 0 0 0 0 0 0 0 0 0 0 0 0 0 0 18 0 34 8 49 16 4 2 5 7 3 10-2 4-6 5-10 3-11-6-22-12-34-13l0 8c0 12-9 21-21 21l-48 0c-10 0-18-6-21-15l-118 0c-2 23-3 45-3 68 0 34 12 67 35 93 22 26 53 43 86 48 34 5 68-2 97-20 29-18 51-45 61-78 3-7 4-15 5-23 0-2 1-5 1-7 17-114 47-236 133-286-22-20-42-30-59-29z m-162 305c-3 5-8 8-13 8-5 0-9-3-12-8-3-4-4-9-4-14 0-6 1-10 4-14 3-5 7-8 12-8 5 0 10 3 13 8 2 4 4 8 4 14 0 5-2 10-4 14z m-129 8c-5 0-10-3-13-8-2-4-4-9-4-14 0-6 2-10 4-14 3-5 8-8 13-8 5 0 9 3 13 8 2 4 3 8 3 14 0 5-1 10-3 14-4 5-8 8-13 8z"/>
<glyph glyph-name="icon-question-circle" unicode="&#113;" d="M484 256c0 126-102 228-228 228-126 0-228-102-228-228 0-126 102-228 228-228 126 0 228 102 228 228z m19 0c0-136-111-247-247-247-136 0-247 111-247 247 0 136 111 247 247 247 136 0 247-111 247-247z m-263-32l0 9c0 9 1 17 5 23 3 7 9 13 18 20 10 8 17 14 20 19 3 4 4 10 4 16 0 7-2 13-7 17-5 4-12 6-21 6-8 0-16-2-23-4-7-2-13-5-20-8l-11 22c18 10 36 15 56 15 17 0 31-4 41-12 10-9 15-20 15-35 0-6-1-12-3-17-2-5-5-10-9-14-4-5-10-11-20-18-8-7-13-12-16-16-3-4-4-10-4-17l0-6z m-6-41c0 13 7 20 19 20 7 0 11-2 15-5 3-4 5-9 5-15 0-6-2-11-5-15-4-3-9-5-15-5-6 0-11 2-14 5-3 4-5 9-5 15z"/>
<glyph glyph-name="icon-search" unicode="&#114;" d="M424 286c0 109-88 198-198 198-109 0-198-89-198-198 0-110 89-198 198-198 110 0 198 88 198 198z m19 0c0-120-97-217-217-217-119 0-217 97-217 217 0 119 98 217 217 217 120 0 217-98 217-217z m57-260l-119 118-13-13 118-119z"/>
<glyph glyph-name="icon-tag" unicode="&#115;" d="M190 38c19-19 49-19 68 0l215 215c9 9 14 22 14 35l0 181c0 10-8 19-18 19l-182 0c-13 0-25-6-34-15l-214-214c-19-19-19-50 0-70z m-18-17l-151 151c-28 29-28 75 0 104l215 215c13 13 32 21 51 21l182 0c23 0 42-19 42-43l0-181c0-20-7-38-21-52l-214-215c-29-29-75-29-104 0z m224 341c0 19-15 34-34 34-18 0-33-15-33-34 0-18 15-33 33-33 19 0 34 15 34 33z m24 0c0-32-26-58-58-58-32 0-58 26-58 58 0 32 26 58 58 58 32 0 58-26 58-58z"/>
<glyph glyph-name="icon-tick" unicode="&#116;" d="M499 382l-303-302c-8-9-20-13-32-13-11 0-23 4-32 13l-119 119c-17 18-17 46 0 64 18 17 46 17 64 0l87-87 271 269c18 18 46 18 64 0 17-17 17-45 0-63"/>
<glyph glyph-name="icon-tick-circle" unicode="&#117;" d="M256 0c-141 0-256 115-256 256 0 141 115 256 256 256 141 0 256-115 256-256 0-141-115-256-256-256z m0 32c124 0 224 100 224 224 0 124-100 224-224 224-124 0-224-100-224-224 0-124 100-224 224-224z m91 267l-113-113c-4-3-8-5-12-5-5 0-9 2-12 5l-45 45c-7 6-7 17 0 24 7 6 17 6 24 0l33-33 101 101c7 7 17 7 24 0 7-7 7-17 0-24z"/>
<glyph glyph-name="icon-tick-circle-filled" unicode="&#118;" d="M256 0c-141 0-256 115-256 256 0 141 115 256 256 256 141 0 256-115 256-256 0-141-115-256-256-256z m91 299c7 7 7 17 0 24-7 7-17 7-24 0l-101-101-33 33c-7 6-17 6-24 0-7-7-7-18 0-24l45-45c3-3 7-5 12-5 4 0 8 2 12 5z"/>
<glyph glyph-name="icon-user-circle" unicode="&#119;" d="M114 72c8 46 39 86 82 106l-8 17c-49-23-83-67-92-120z m202 106c16-8 30-17 42-29 21-21 35-48 40-77l18 3c-5 33-21 63-45 87-13 14-29 25-47 33z m168 78c0 126-102 228-228 228-126 0-228-102-228-228 0-126 102-228 228-228 126 0 228 102 228 228z m19 0c0-136-111-247-247-247-136 0-247 111-247 247 0 136 111 247 247 247 136 0 247-111 247-247z m-159 14c0 57-40 102-88 102-48 0-88-45-88-102 0-57 40-102 88-102 48 0 88 45 88 102z m19 0c0-67-48-121-107-121-59 0-107 54-107 121 0 67 48 121 107 121 59 0 107-54 107-121z"/>
<glyph glyph-name="icon-warning" unicode="&#120;" d="M256 473l-236-434 472 0z m17 9l237-433c7-13-3-29-18-29l-472 0c-15 0-25 16-18 29l237 433c7 14 27 14 34 0z m-17-399c11 0 20 9 20 19 0 11-9 20-20 20-11 0-20-9-20-20 0-10 9-19 20-19z m1 266c10 0 19-8 19-16 0-1 0-1 0-1l-5-169c0-6-7-11-14-11-8 0-15 5-15 11l-5 169c0 9 8 16 19 17 0 0 0 0 1 0z"/>
<glyph glyph-name="wordpress-logo-only" unicode="&#121;" d="M432 438c-47 47-112 74-179 74-78 0-144-32-199-97-35-44-54-100-54-157 0-72 28-135 85-188 46-42 105-64 167-65l3 0c77 0 143 33 198 98 35 44 54 99 54 155l0 3c-1 66-27 130-75 177z m-279-385c-46 22-84 60-106 106-15 31-22 65-23 100 1 32 7 64 20 93l2 0 108-299z m176-11c-25-8-50-12-76-12-22-1-44 3-65 9l69 201c10-24 20-49 27-74l46-124z m-45 325l1 0c23 0 34 3 34 8l0 3c-1 5-3 8-7 8l-63-3-64 3c-4-2-5-5-5-9l-1 0c0-7 9-11 28-11l5-1 35-98-50-149-1 0-83 248 0 1 1 0c22 0 33 2 33 7l0 3c0 4-3 8-7 9l-74-3-3 0 0 2c12 19 28 36 45 51 41 33 93 52 146 52 57 0 112-22 154-61l0-1-3 1c-18 0-31-11-38-33l0-8c0-13 9-34 27-61 10-18 14-37 14-57 0-17-8-48-24-94l-16-54c-10 24-18 48-25 73z m120-281c-11-9-23-18-35-25l-1 0 0 1 80 233c4 17 6 33 7 50l-2 24 2 0c17-35 27-72 27-111 0-66-28-128-78-172z"/>
<glyph glyph-name="icon-chevron-down" unicode="&#122;" d="M243 130l-243 257 34 32 209-222 210 222 34-32-244-257 0 0z"/>
<glyph glyph-name="icon-chevron-left" unicode="&#65;" d="M93 269l257 243 32-34-221-209 221-210-32-34-257 244 0 0z"/>
<glyph glyph-name="icon-chevron-right" unicode="&#66;" d="M382 269l-257 243-32-34 222-209-222-210 32-34 257 244 0 0z"/>
<glyph glyph-name="icon-chevron-up" unicode="&#67;" d="M243 419l244-257-34-32-210 221-209-221-34 32 243 257 0 0z"/>
<glyph glyph-name="caret-down" unicode="&#68;" d="M402 311c0-5-2-9-5-13l-128-128c-4-4-8-5-13-5-5 0-9 1-13 5l-128 128c-3 4-5 8-5 13 0 5 2 9 5 13 4 3 8 5 13 5l256 0c5 0 9-2 13-5 3-4 5-8 5-13z"/>
<glyph glyph-name="caret-left" unicode="&#69;" d="M347 384l0-256c0-5-1-9-5-13-4-3-8-5-13-5-5 0-9 2-13 5l-128 128c-3 4-5 8-5 13 0 5 2 9 5 13l128 128c4 3 8 5 13 5 5 0 9-2 13-5 4-4 5-8 5-13z"/>
<glyph glyph-name="caret-right" unicode="&#70;" d="M329 256c0-5-2-9-5-13l-128-128c-4-3-8-5-13-5-5 0-9 2-13 5-4 4-5 8-5 13l0 256c0 5 1 9 5 13 4 3 8 5 13 5 5 0 9-2 13-5l128-128c3-4 5-8 5-13z"/>
<glyph glyph-name="caret-up" unicode="&#71;" d="M402 165c0-5-2-10-5-13-4-4-8-6-13-6l-256 0c-5 0-9 2-13 6-3 3-5 8-5 13 0 5 2 9 5 12l128 128c4 4 8 6 13 6 5 0 9-2 13-6l128-128c3-3 5-7 5-12z"/>
<glyph glyph-name="credit-card" unicode="&#72;" d="M485 475c12 0 23-4 32-13 9-9 13-20 13-32l0-348c0-12-4-23-13-32-9-9-20-13-32-13l-458 0c-12 0-23 4-32 13-9 9-13 20-13 32l0 348c0 12 4 23 13 32 9 9 20 13 32 13z m-458-36c-2 0-4-1-6-3-2-2-3-4-3-6l0-64 476 0 0 64c0 2-1 4-3 6-2 2-4 3-6 3z m458-366c2 0 4 1 6 3 2 2 3 4 3 6l0 174-476 0 0-174c0-2 1-4 3-6 2-2 4-3 6-3z m-430 37l0 36 73 0 0-36z m110 0l0 36 109 0 0-36z"/>
</font>
</defs>
</svg>
